solid 
 facet normal  3.531704e-01 -8.985814e-02 -9.312337e-01
   outer loop
     vertex  3.368241e+01  5.939117e+00 -9.396926e+01
     vertex  4.647232e+01 -1.138243e-14 -8.854560e+01
     vertex  2.393157e+01 -5.861543e-15 -9.709418e+01
   endloop
 endfacet
 facet normal  1.193510e-01  1.399171e-01 -9.829438e-01
   outer loop
     vertex  2.961981e+01  1.710101e+01 -9.396926e+01
     vertex  2.393157e+01 -5.861543e-15 -9.709418e+01
     vertex  6.123234e-15 -1.499760e-30 -1.000000e+02
   endloop
 endfacet
 facet normal  2.526624e-01  9.196160e-02 -9.631743e-01
   outer loop
     vertex  2.961981e+01  1.710101e+01 -9.396926e+01
     vertex  3.368241e+01  5.939117e+00 -9.396926e+01
     vertex  2.393157e+01 -5.861543e-15 -9.709418e+01
   endloop
 endfacet
 facet normal  4.484468e-01  1.632213e-01 -8.787800e-01
   outer loop
     vertex  2.961981e+01  1.710101e+01 -9.396926e+01
     vertex  4.647232e+01 -1.138243e-14 -8.854560e+01
     vertex  3.368241e+01  5.939117e+00 -9.396926e+01
   endloop
 endfacet
 facet normal  1.350110e-01  1.132877e-01 -9.843464e-01
   outer loop
     vertex  2.198463e+01  2.620026e+01 -9.396926e+01
     vertex  2.961981e+01  1.710101e+01 -9.396926e+01
     vertex  6.123234e-15 -1.499760e-30 -1.000000e+02
   endloop
 endfacet
 facet normal  8.812219e-02  1.526321e-01 -9.843464e-01
   outer loop
     vertex  1.169778e+01  3.213938e+01 -9.396926e+01
     vertex  2.198463e+01  2.620026e+01 -9.396926e+01
     vertex  6.123234e-15 -1.499760e-30 -1.000000e+02
   endloop
 endfacet
 facet normal  5.659235e-01  8.674449e-02 -8.198817e-01
   outer loop
     vertex  6.040228e+01  2.198463e+01 -7.660444e+01
     vertex  6.631227e+01 -1.624182e-14 -7.485107e+01
     vertex  4.647232e+01 -1.138243e-14 -8.854560e+01
   endloop
 endfacet
 facet normal  7.404098e-01  1.467251e-01 -6.559459e-01
   outer loop
     vertex  6.040228e+01  2.198463e+01 -7.660444e+01
     vertex  8.229839e+01 -2.015729e-14 -5.680647e+01
     vertex  6.631227e+01 -1.624182e-14 -7.485107e+01
   endloop
 endfacet
 facet normal  4.616172e-01  1.793803e-01 -8.687533e-01
   outer loop
     vertex  6.040228e+01  2.198463e+01 -7.660444e+01
     vertex  4.647232e+01 -1.138243e-14 -8.854560e+01
     vertex  2.961981e+01  1.710101e+01 -9.396926e+01
   endloop
 endfacet
 facet normal  3.060452e-02  1.735668e-01 -9.843464e-01
   outer loop
     vertex  2.094269e-15  3.420201e+01 -9.396926e+01
     vertex  1.169778e+01  3.213938e+01 -9.396926e+01
     vertex  6.123234e-15 -1.499760e-30 -1.000000e+02
   endloop
 endfacet
 facet normal  3.781126e-01  3.172741e-01 -8.696942e-01
   outer loop
     vertex  4.924039e+01  4.131759e+01 -7.660444e+01
     vertex  2.961981e+01  1.710101e+01 -9.396926e+01
     vertex  2.198463e+01  2.620026e+01 -9.396926e+01
   endloop
 endfacet
 facet normal  4.437742e-01  2.562131e-01 -8.587312e-01
   outer loop
     vertex  4.924039e+01  4.131759e+01 -7.660444e+01
     vertex  6.040228e+01  2.198463e+01 -7.660444e+01
     vertex  2.961981e+01  1.710101e+01 -9.396926e+01
   endloop
 endfacet
 facet normal -3.060452e-02  1.735668e-01 -9.843464e-01
   outer loop
     vertex -1.169778e+01  3.213938e+01 -9.396926e+01
     vertex  2.094269e-15  3.420201e+01 -9.396926e+01
     vertex  6.123234e-15 -1.499760e-30 -1.000000e+02
   endloop
 endfacet
 facet normal  2.467955e-01  4.274623e-01 -8.696942e-01
   outer loop
     vertex  3.213938e+01  5.566704e+01 -7.660444e+01
     vertex  2.198463e+01  2.620026e+01 -9.396926e+01
     vertex  1.169778e+01  3.213938e+01 -9.396926e+01
   endloop
 endfacet
 facet normal  3.293813e-01  3.925413e-01 -8.587312e-01
   outer loop
     vertex  3.213938e+01  5.566704e+01 -7.660444e+01
     vertex  4.924039e+01  4.131759e+01 -7.660444e+01
     vertex  2.198463e+01  2.620026e+01 -9.396926e+01
   endloop
 endfacet
 facet normal -8.812219e-02  1.526321e-01 -9.843464e-01
   outer loop
     vertex -2.198463e+01  2.620026e+01 -9.396926e+01
     vertex -1.169778e+01  3.213938e+01 -9.396926e+01
     vertex  6.123234e-15 -1.499760e-30 -1.000000e+02
   endloop
 endfacet
 facet normal  8.849333e-01  3.435648e-02 -4.644488e-01
   outer loop
     vertex  8.528685e+01  1.503837e+01 -5.000000e+01
     vertex  9.350162e+01 -2.290129e-14 -3.546049e+01
     vertex  8.229839e+01 -2.015729e-14 -5.680647e+01
   endloop
 endfacet
 facet normal  1.752601e-01  4.815232e-01 -8.587312e-01
   outer loop
     vertex  1.116189e+01  6.330222e+01 -7.660444e+01
     vertex  3.213938e+01  5.566704e+01 -7.660444e+01
     vertex  1.169778e+01  3.213938e+01 -9.396926e+01
   endloop
 endfacet
 facet normal  8.571116e-02  4.860922e-01 -8.696942e-01
   outer loop
     vertex  1.116189e+01  6.330222e+01 -7.660444e+01
     vertex  1.169778e+01  3.213938e+01 -9.396926e+01
     vertex  2.094269e-15  3.420201e+01 -9.396926e+01
   endloop
 endfacet
 facet normal -1.350110e-01  1.132877e-01 -9.843464e-01
   outer loop
     vertex -2.961981e+01  1.710101e+01 -9.396926e+01
     vertex -2.198463e+01  2.620026e+01 -9.396926e+01
     vertex  6.123234e-15 -1.499760e-30 -1.000000e+02
   endloop
 endfacet
 facet normal  6.110655e-01  2.224097e-01 -7.596926e-01
   outer loop
     vertex  7.500000e+01  4.330127e+01 -5.000000e+01
     vertex  8.528685e+01  1.503837e+01 -5.000000e+01
     vertex  8.229839e+01 -2.015729e-14 -5.680647e+01
   endloop
 endfacet
 facet normal  7.676602e-01  2.237827e-01 -6.005157e-01
   outer loop
     vertex  7.500000e+01  4.330127e+01 -5.000000e+01
     vertex  8.229839e+01 -2.015729e-14 -5.680647e+01
     vertex  6.040228e+01  2.198463e+01 -7.660444e+01
   endloop
 endfacet
 facet normal  6.514904e-01  3.761382e-01 -6.588477e-01
   outer loop
     vertex  7.500000e+01  4.330127e+01 -5.000000e+01
     vertex  6.040228e+01  2.198463e+01 -7.660444e+01
     vertex  4.924039e+01  4.131759e+01 -7.660444e+01
   endloop
 endfacet
 facet normal  9.252832e-01  3.367756e-01 -1.744511e-01
   outer loop
     vertex  7.500000e+01  4.330127e+01 -5.000000e+01
     vertex  9.350162e+01 -2.290129e-14 -3.546049e+01
     vertex  8.528685e+01  1.503837e+01 -5.000000e+01
   endloop
 endfacet
 facet normal -8.571116e-02  4.860922e-01 -8.696942e-01
   outer loop
     vertex -1.116189e+01  6.330222e+01 -7.660444e+01
     vertex  2.094269e-15  3.420201e+01 -9.396926e+01
     vertex -1.169778e+01  3.213938e+01 -9.396926e+01
   endloop
 endfacet
 facet normal  0.000000e+00  5.124263e-01 -8.587312e-01
   outer loop
     vertex -1.116189e+01  6.330222e+01 -7.660444e+01
     vertex  1.116189e+01  6.330222e+01 -7.660444e+01
     vertex  2.094269e-15  3.420201e+01 -9.396926e+01
   endloop
 endfacet
 facet normal -1.656155e-01  6.027913e-02 -9.843464e-01
   outer loop
     vertex -3.368241e+01  5.939117e+00 -9.396926e+01
     vertex -2.961981e+01  1.710101e+01 -9.396926e+01
     vertex  6.123234e-15 -1.499760e-30 -1.000000e+02
   endloop
 endfacet
 facet normal  4.835539e-01  5.762771e-01 -6.588477e-01
   outer loop
     vertex  5.566704e+01  6.634139e+01 -5.000000e+01
     vertex  4.924039e+01  4.131759e+01 -7.660444e+01
     vertex  3.213938e+01  5.566704e+01 -7.660444e+01
   endloop
 endfacet
 facet normal  6.012047e-01  5.044706e-01 -6.197276e-01
   outer loop
     vertex  5.566704e+01  6.634139e+01 -5.000000e+01
     vertex  7.500000e+01  4.330127e+01 -5.000000e+01
     vertex  4.924039e+01  4.131759e+01 -7.660444e+01
   endloop
 endfacet
 facet normal -2.467955e-01  4.274623e-01 -8.696942e-01
   outer loop
     vertex -3.213938e+01  5.566704e+01 -7.660444e+01
     vertex -1.169778e+01  3.213938e+01 -9.396926e+01
     vertex -2.198463e+01  2.620026e+01 -9.396926e+01
   endloop
 endfacet
 facet normal -1.752601e-01  4.815232e-01 -8.587312e-01
   outer loop
     vertex -3.213938e+01  5.566704e+01 -7.660444e+01
     vertex -1.116189e+01  6.330222e+01 -7.660444e+01
     vertex -1.169778e+01  3.213938e+01 -9.396926e+01
   endloop
 endfacet
 facet normal  0.000000e+00  0.000000e+00  0.000000e+00
   outer loop
     vertex -3.368241e+01 -5.939117e+00 -9.396926e+01
     vertex  6.123234e-15 -1.499760e-30 -1.000000e+02
     vertex  6.123234e-15 -1.499760e-30 -1.000000e+02
   endloop
 endfacet
 facet normal -1.762444e-01  0.000000e+00 -9.843464e-01
   outer loop
     vertex -3.368241e+01 -5.939117e+00 -9.396926e+01
     vertex -3.368241e+01  5.939117e+00 -9.396926e+01
     vertex  6.123234e-15 -1.499760e-30 -1.000000e+02
   endloop
 endfacet
 facet normal  2.572937e-01  7.069085e-01 -6.588477e-01
   outer loop
     vertex  2.961981e+01  8.137977e+01 -5.000000e+01
     vertex  3.213938e+01  5.566704e+01 -7.660444e+01
     vertex  1.116189e+01  6.330222e+01 -7.660444e+01
   endloop
 endfacet
 facet normal  3.924085e-01  6.796715e-01 -6.197276e-01
   outer loop
     vertex  2.961981e+01  8.137977e+01 -5.000000e+01
     vertex  5.566704e+01  6.634139e+01 -5.000000e+01
     vertex  3.213938e+01  5.566704e+01 -7.660444e+01
   endloop
 endfacet
 facet normal -3.293813e-01  3.925413e-01 -8.587312e-01
   outer loop
     vertex -4.924039e+01  4.131759e+01 -7.660444e+01
     vertex -3.213938e+01  5.566704e+01 -7.660444e+01
     vertex -2.198463e+01  2.620026e+01 -9.396926e+01
   endloop
 endfacet
 facet normal -3.781126e-01  3.172741e-01 -8.696942e-01
   outer loop
     vertex -4.924039e+01  4.131759e+01 -7.660444e+01
     vertex -2.198463e+01  2.620026e+01 -9.396926e+01
     vertex -2.961981e+01  1.710101e+01 -9.396926e+01
   endloop
 endfacet
 facet normal  9.593032e-01  1.543704e-01 -2.364470e-01
   outer loop
     vertex  9.254166e+01  3.368241e+01 -1.736482e+01
     vertex  9.927089e+01 -2.431435e-14 -1.205367e+01
     vertex  9.350162e+01 -2.290129e-14 -3.546049e+01
   endloop
 endfacet
 facet normal  9.806213e-01  1.959131e-01 -1.716205e-15
   outer loop
     vertex  9.254166e+01  3.368241e+01 -1.736482e+01
     vertex  9.927089e+01 -2.431435e-14  1.205367e+01
     vertex  9.927089e+01 -2.431435e-14 -1.205367e+01
   endloop
 endfacet
 facet normal -1.656155e-01 -6.027913e-02 -9.843464e-01
   outer loop
     vertex -2.961981e+01 -1.710101e+01 -9.396926e+01
     vertex -3.368241e+01 -5.939117e+00 -9.396926e+01
     vertex  6.123234e-15 -1.499760e-30 -1.000000e+02
   endloop
 endfacet
 facet normal  1.362820e-01  7.728939e-01 -6.197276e-01
   outer loop
     vertex  5.302876e-15  8.660254e+01 -5.000000e+01
     vertex  2.961981e+01  8.137977e+01 -5.000000e+01
     vertex  1.116189e+01  6.330222e+01 -7.660444e+01
   endloop
 endfacet
 facet normal  0.000000e+00  7.522763e-01 -6.588477e-01
   outer loop
     vertex  5.302876e-15  8.660254e+01 -5.000000e+01
     vertex  1.116189e+01  6.330222e+01 -7.660444e+01
     vertex -1.116189e+01  6.330222e+01 -7.660444e+01
   endloop
 endfacet
 facet normal -4.638237e-01  1.688180e-01 -8.696942e-01
   outer loop
     vertex -6.040228e+01  2.198463e+01 -7.660444e+01
     vertex -2.961981e+01  1.710101e+01 -9.396926e+01
     vertex -3.368241e+01  5.939117e+00 -9.396926e+01
   endloop
 endfacet
 facet normal -4.437742e-01  2.562131e-01 -8.587312e-01
   outer loop
     vertex -6.040228e+01  2.198463e+01 -7.660444e+01
     vertex -4.924039e+01  4.131759e+01 -7.660444e+01
     vertex -2.961981e+01  1.710101e+01 -9.396926e+01
   endloop
 endfacet
 facet normal  7.102001e-01  5.959287e-01 -3.748130e-01
   outer loop
     vertex  7.544065e+01  6.330222e+01 -1.736482e+01
     vertex  7.500000e+01  4.330127e+01 -5.000000e+01
     vertex  5.566704e+01  6.634139e+01 -5.000000e+01
   endloop
 endfacet
 facet normal  9.225037e-01  3.234258e-01 -2.106722e-01
   outer loop
     vertex  7.544065e+01  6.330222e+01 -1.736482e+01
     vertex  9.350162e+01 -2.290129e-14 -3.546049e+01
     vertex  7.500000e+01  4.330127e+01 -5.000000e+01
   endloop
 endfacet
 facet normal  6.486120e-01  3.744763e-01 -6.626236e-01
   outer loop
     vertex  7.544065e+01  6.330222e+01 -1.736482e+01
     vertex  9.254166e+01  3.368241e+01 -1.736482e+01
     vertex  9.350162e+01 -2.290129e-14 -3.546049e+01
   endloop
 endfacet
 facet normal -1.350110e-01 -1.132877e-01 -9.843464e-01
   outer loop
     vertex -2.198463e+01 -2.620026e+01 -9.396926e+01
     vertex -2.961981e+01 -1.710101e+01 -9.396926e+01
     vertex  6.123234e-15 -1.499760e-30 -1.000000e+02
   endloop
 endfacet
 facet normal -1.362820e-01  7.728939e-01 -6.197276e-01
   outer loop
     vertex -2.961981e+01  8.137977e+01 -5.000000e+01
     vertex  5.302876e-15  8.660254e+01 -5.000000e+01
     vertex -1.116189e+01  6.330222e+01 -7.660444e+01
   endloop
 endfacet
 facet normal -2.572937e-01  7.069085e-01 -6.588477e-01
   outer loop
     vertex -2.961981e+01  8.137977e+01 -5.000000e+01
     vertex -1.116189e+01  6.330222e+01 -7.660444e+01
     vertex -3.213938e+01  5.566704e+01 -7.660444e+01
   endloop
 endfacet
 facet normal -4.935909e-01  0.000000e+00 -8.696942e-01
   outer loop
     vertex -6.427876e+01  7.871878e-15 -7.660444e+01
     vertex -3.368241e+01  5.939117e+00 -9.396926e+01
     vertex -3.368241e+01 -5.939117e+00 -9.396926e+01
   endloop
 endfacet
 facet normal -5.046414e-01  8.898189e-02 -8.587312e-01
   outer loop
     vertex -6.427876e+01  7.871878e-15 -7.660444e+01
     vertex -6.040228e+01  2.198463e+01 -7.660444e+01
     vertex -3.368241e+01  5.939117e+00 -9.396926e+01
   endloop
 endfacet
 facet normal  4.635502e-01  8.028925e-01 -3.748130e-01
   outer loop
     vertex  4.924039e+01  8.528685e+01 -1.736482e+01
     vertex  5.566704e+01  6.634139e+01 -5.000000e+01
     vertex  2.961981e+01  8.137977e+01 -5.000000e+01
   endloop
 endfacet
 facet normal  6.125388e-01  7.299953e-01 -3.031551e-01
   outer loop
     vertex  4.924039e+01  8.528685e+01 -1.736482e+01
     vertex  7.544065e+01  6.330222e+01 -1.736482e+01
     vertex  5.566704e+01  6.634139e+01 -5.000000e+01
   endloop
 endfacet
 facet normal -8.812219e-02 -1.526321e-01 -9.843464e-01
   outer loop
     vertex -1.169778e+01 -3.213938e+01 -9.396926e+01
     vertex -2.198463e+01 -2.620026e+01 -9.396926e+01
     vertex  6.123234e-15 -1.499760e-30 -1.000000e+02
   endloop
 endfacet
 facet normal -3.924085e-01  6.796715e-01 -6.197276e-01
   outer loop
     vertex -5.566704e+01  6.634139e+01 -5.000000e+01
     vertex -2.961981e+01  8.137977e+01 -5.000000e+01
     vertex -3.213938e+01  5.566704e+01 -7.660444e+01
   endloop
 endfacet
 facet normal -4.835539e-01  5.762771e-01 -6.588477e-01
   outer loop
     vertex -5.566704e+01  6.634139e+01 -5.000000e+01
     vertex -3.213938e+01  5.566704e+01 -7.660444e+01
     vertex -4.924039e+01  4.131759e+01 -7.660444e+01
   endloop
 endfacet
 facet normal  9.694509e-01  5.539578e-02  2.389482e-01
   outer loop
     vertex  9.698463e+01  1.710101e+01  1.736482e+01
     vertex  9.350162e+01 -2.290129e-14  3.546049e+01
     vertex  9.927089e+01 -2.431435e-14  1.205367e+01
   endloop
 endfacet
 facet normal -4.638237e-01 -1.688180e-01 -8.696942e-01
   outer loop
     vertex -6.040228e+01 -2.198463e+01 -7.660444e+01
     vertex -3.368241e+01 -5.939117e+00 -9.396926e+01
     vertex -2.961981e+01 -1.710101e+01 -9.396926e+01
   endloop
 endfacet
 facet normal -5.046414e-01 -8.898189e-02 -8.587312e-01
   outer loop
     vertex -6.040228e+01 -2.198463e+01 -7.660444e+01
     vertex -6.427876e+01  7.871878e-15 -7.660444e+01
     vertex -3.368241e+01 -5.939117e+00 -9.396926e+01
   endloop
 endfacet
 facet normal  1.609893e-01  9.130157e-01 -3.748130e-01
   outer loop
     vertex  1.710101e+01  9.698463e+01 -1.736482e+01
     vertex  2.961981e+01  8.137977e+01 -5.000000e+01
     vertex  5.302876e-15  8.660254e+01 -5.000000e+01
   endloop
 endfacet
 facet normal  3.259251e-01  8.954718e-01 -3.031551e-01
   outer loop
     vertex  1.710101e+01  9.698463e+01 -1.736482e+01
     vertex  4.924039e+01  8.528685e+01 -1.736482e+01
     vertex  2.961981e+01  8.137977e+01 -5.000000e+01
   endloop
 endfacet
 facet normal -3.060452e-02 -1.735668e-01 -9.843464e-01
   outer loop
     vertex -3.666030e-14 -3.420201e+01 -9.396926e+01
     vertex -1.169778e+01 -3.213938e+01 -9.396926e+01
     vertex  6.123234e-15 -1.499760e-30 -1.000000e+02
   endloop
 endfacet
 facet normal -6.514904e-01  3.761382e-01 -6.588477e-01
   outer loop
     vertex -7.500000e+01  4.330127e+01 -5.000000e+01
     vertex -4.924039e+01  4.131759e+01 -7.660444e+01
     vertex -6.040228e+01  2.198463e+01 -7.660444e+01
   endloop
 endfacet
 facet normal -6.012047e-01  5.044706e-01 -6.197276e-01
   outer loop
     vertex -7.500000e+01  4.330127e+01 -5.000000e+01
     vertex -5.566704e+01  6.634139e+01 -5.000000e+01
     vertex -4.924039e+01  4.131759e+01 -7.660444e+01
   endloop
 endfacet
 facet normal  8.391094e-01  3.054108e-01  4.501329e-01
   outer loop
     vertex  8.528685e+01  4.924039e+01  1.736482e+01
     vertex  9.350162e+01 -2.290129e-14  3.546049e+01
     vertex  9.698463e+01  1.710101e+01  1.736482e+01
   endloop
 endfacet
 facet normal  8.652229e-01  4.995367e-01 -4.303984e-02
   outer loop
     vertex  8.528685e+01  4.924039e+01  1.736482e+01
     vertex  9.254166e+01  3.368241e+01 -1.736482e+01
     vertex  7.544065e+01  6.330222e+01 -1.736482e+01
   endloop
 endfacet
 facet normal  7.710038e-01  2.806224e-01 -5.716679e-01
   outer loop
     vertex  8.528685e+01  4.924039e+01  1.736482e+01
     vertex  9.698463e+01  1.710101e+01  1.736482e+01
     vertex  9.927089e+01 -2.431435e-14  1.205367e+01
   endloop
 endfacet
 facet normal  9.609851e-01  2.640198e-01  8.246974e-02
   outer loop
     vertex  8.528685e+01  4.924039e+01  1.736482e+01
     vertex  9.927089e+01 -2.431435e-14  1.205367e+01
     vertex  9.254166e+01  3.368241e+01 -1.736482e+01
   endloop
 endfacet
 facet normal -3.781126e-01 -3.172741e-01 -8.696942e-01
   outer loop
     vertex -4.924039e+01 -4.131759e+01 -7.660444e+01
     vertex -2.961981e+01 -1.710101e+01 -9.396926e+01
     vertex -2.198463e+01 -2.620026e+01 -9.396926e+01
   endloop
 endfacet
 facet normal -4.437742e-01 -2.562131e-01 -8.587312e-01
   outer loop
     vertex -4.924039e+01 -4.131759e+01 -7.660444e+01
     vertex -6.040228e+01 -2.198463e+01 -7.660444e+01
     vertex -2.961981e+01 -1.710101e+01 -9.396926e+01
   endloop
 endfacet
 facet normal -1.609893e-01  9.130157e-01 -3.748130e-01
   outer loop
     vertex -1.710101e+01  9.698463e+01 -1.736482e+01
     vertex  5.302876e-15  8.660254e+01 -5.000000e+01
     vertex -2.961981e+01  8.137977e+01 -5.000000e+01
   endloop
 endfacet
 facet normal  0.000000e+00  9.529412e-01 -3.031551e-01
   outer loop
     vertex -1.710101e+01  9.698463e+01 -1.736482e+01
     vertex  1.710101e+01  9.698463e+01 -1.736482e+01
     vertex  5.302876e-15  8.660254e+01 -5.000000e+01
   endloop
 endfacet
 facet normal  3.060452e-02 -1.735668e-01 -9.843464e-01
   outer loop
     vertex  1.169778e+01 -3.213938e+01 -9.396926e+01
     vertex -3.666030e-14 -3.420201e+01 -9.396926e+01
     vertex  6.123234e-15 -1.499760e-30 -1.000000e+02
   endloop
 endfacet
 facet normal -7.408476e-01  1.306314e-01 -6.588477e-01
   outer loop
     vertex -8.528685e+01  1.503837e+01 -5.000000e+01
     vertex -6.040228e+01  2.198463e+01 -7.660444e+01
     vertex -6.427876e+01  7.871878e-15 -7.660444e+01
   endloop
 endfacet
 facet normal -7.374867e-01  2.684232e-01 -6.197276e-01
   outer loop
     vertex -8.528685e+01  1.503837e+01 -5.000000e+01
     vertex -7.500000e+01  4.330127e+01 -5.000000e+01
     vertex -6.040228e+01  2.198463e+01 -7.660444e+01
   endloop
 endfacet
 facet normal  6.421920e-01  7.653346e-01 -4.303984e-02
   outer loop
     vertex  6.330222e+01  7.544065e+01  1.736482e+01
     vertex  7.544065e+01  6.330222e+01 -1.736482e+01
     vertex  4.924039e+01  8.528685e+01 -1.736482e+01
   endloop
 endfacet
 facet normal  7.653346e-01  6.421920e-01  4.303984e-02
   outer loop
     vertex  6.330222e+01  7.544065e+01  1.736482e+01
     vertex  8.528685e+01  4.924039e+01  1.736482e+01
     vertex  7.544065e+01  6.330222e+01 -1.736482e+01
   endloop
 endfacet
 facet normal -2.467955e-01 -4.274623e-01 -8.696942e-01
   outer loop
     vertex -3.213938e+01 -5.566704e+01 -7.660444e+01
     vertex -2.198463e+01 -2.620026e+01 -9.396926e+01
     vertex -1.169778e+01 -3.213938e+01 -9.396926e+01
   endloop
 endfacet
 facet normal -3.293813e-01 -3.925413e-01 -8.587312e-01
   outer loop
     vertex -3.213938e+01 -5.566704e+01 -7.660444e+01
     vertex -4.924039e+01 -4.131759e+01 -7.660444e+01
     vertex -2.198463e+01 -2.620026e+01 -9.396926e+01
   endloop
 endfacet
 facet normal -3.259251e-01  8.954718e-01 -3.031551e-01
   outer loop
     vertex -4.924039e+01  8.528685e+01 -1.736482e+01
     vertex -1.710101e+01  9.698463e+01 -1.736482e+01
     vertex -2.961981e+01  8.137977e+01 -5.000000e+01
   endloop
 endfacet
 facet normal -4.635502e-01  8.028925e-01 -3.748130e-01
   outer loop
     vertex -4.924039e+01  8.528685e+01 -1.736482e+01
     vertex -2.961981e+01  8.137977e+01 -5.000000e+01
     vertex -5.566704e+01  6.634139e+01 -5.000000e+01
   endloop
 endfacet
 facet normal  8.812219e-02 -1.526321e-01 -9.843464e-01
   outer loop
     vertex  2.198463e+01 -2.620026e+01 -9.396926e+01
     vertex  1.169778e+01 -3.213938e+01 -9.396926e+01
     vertex  6.123234e-15 -1.499760e-30 -1.000000e+02
   endloop
 endfacet
 facet normal -7.408476e-01 -1.306314e-01 -6.588477e-01
   outer loop
     vertex -8.528685e+01 -1.503837e+01 -5.000000e+01
     vertex -6.427876e+01  7.871878e-15 -7.660444e+01
     vertex -6.040228e+01 -2.198463e+01 -7.660444e+01
   endloop
 endfacet
 facet normal -7.848170e-01  0.000000e+00 -6.197276e-01
   outer loop
     vertex -8.528685e+01 -1.503837e+01 -5.000000e+01
     vertex -8.528685e+01  1.503837e+01 -5.000000e+01
     vertex -6.427876e+01  7.871878e-15 -7.660444e+01
   endloop
 endfacet
 facet normal  4.995367e-01  8.652229e-01  4.303984e-02
   outer loop
     vertex  3.368241e+01  9.254166e+01  1.736482e+01
     vertex  6.330222e+01  7.544065e+01  1.736482e+01
     vertex  4.924039e+01  8.528685e+01 -1.736482e+01
   endloop
 endfacet
 facet normal  3.417032e-01  9.388219e-01 -4.303984e-02
   outer loop
     vertex  3.368241e+01  9.254166e+01  1.736482e+01
     vertex  4.924039e+01  8.528685e+01 -1.736482e+01
     vertex  1.710101e+01  9.698463e+01 -1.736482e+01
   endloop
 endfacet
 facet normal -1.752601e-01 -4.815232e-01 -8.587312e-01
   outer loop
     vertex -1.116189e+01 -6.330222e+01 -7.660444e+01
     vertex -3.213938e+01 -5.566704e+01 -7.660444e+01
     vertex -1.169778e+01 -3.213938e+01 -9.396926e+01
   endloop
 endfacet
 facet normal -8.571116e-02 -4.860922e-01 -8.696942e-01
   outer loop
     vertex -1.116189e+01 -6.330222e+01 -7.660444e+01
     vertex -1.169778e+01 -3.213938e+01 -9.396926e+01
     vertex -3.666030e-14 -3.420201e+01 -9.396926e+01
   endloop
 endfacet
 facet normal -7.102001e-01  5.959287e-01 -3.748130e-01
   outer loop
     vertex -7.544065e+01  6.330222e+01 -1.736482e+01
     vertex -5.566704e+01  6.634139e+01 -5.000000e+01
     vertex -7.500000e+01  4.330127e+01 -5.000000e+01
   endloop
 endfacet
 facet normal -6.125388e-01  7.299953e-01 -3.031551e-01
   outer loop
     vertex -7.544065e+01  6.330222e+01 -1.736482e+01
     vertex -4.924039e+01  8.528685e+01 -1.736482e+01
     vertex -5.566704e+01  6.634139e+01 -5.000000e+01
   endloop
 endfacet
 facet normal  8.775827e-01  1.330584e-01  4.605909e-01
   outer loop
     vertex  8.137977e+01  2.961981e+01  5.000000e+01
     vertex  8.229839e+01 -2.015729e-14  5.680647e+01
     vertex  9.350162e+01 -2.290129e-14  3.546049e+01
   endloop
 endfacet
 facet normal  1.193510e-01 -1.399171e-01 -9.829438e-01
   outer loop
     vertex  2.961981e+01 -1.710101e+01 -9.396926e+01
     vertex  6.123234e-15 -1.499760e-30 -1.000000e+02
     vertex  2.393157e+01 -5.861543e-15 -9.709418e+01
   endloop
 endfacet
 facet normal  1.350110e-01 -1.132877e-01 -9.843464e-01
   outer loop
     vertex  2.961981e+01 -1.710101e+01 -9.396926e+01
     vertex  2.198463e+01 -2.620026e+01 -9.396926e+01
     vertex  6.123234e-15 -1.499760e-30 -1.000000e+02
   endloop
 endfacet
 facet normal -7.374867e-01 -2.684232e-01 -6.197276e-01
   outer loop
     vertex -7.500000e+01 -4.330127e+01 -5.000000e+01
     vertex -8.528685e+01 -1.503837e+01 -5.000000e+01
     vertex -6.040228e+01 -2.198463e+01 -7.660444e+01
   endloop
 endfacet
 facet normal -6.514904e-01 -3.761382e-01 -6.588477e-01
   outer loop
     vertex -7.500000e+01 -4.330127e+01 -5.000000e+01
     vertex -6.040228e+01 -2.198463e+01 -7.660444e+01
     vertex -4.924039e+01 -4.131759e+01 -7.660444e+01
   endloop
 endfacet
 facet normal  0.000000e+00  9.990734e-01 -4.303984e-02
   outer loop
     vertex  6.030208e-15  9.848078e+01  1.736482e+01
     vertex  1.710101e+01  9.698463e+01 -1.736482e+01
     vertex -1.710101e+01  9.698463e+01 -1.736482e+01
   endloop
 endfacet
 facet normal  1.734873e-01  9.838952e-01  4.303984e-02
   outer loop
     vertex  6.030208e-15  9.848078e+01  1.736482e+01
     vertex  3.368241e+01  9.254166e+01  1.736482e+01
     vertex  1.710101e+01  9.698463e+01 -1.736482e+01
   endloop
 endfacet
 facet normal  8.571116e-02 -4.860922e-01 -8.696942e-01
   outer loop
     vertex  1.116189e+01 -6.330222e+01 -7.660444e+01
     vertex -3.666030e-14 -3.420201e+01 -9.396926e+01
     vertex  1.169778e+01 -3.213938e+01 -9.396926e+01
   endloop
 endfacet
 facet normal -4.892999e-16 -5.124263e-01 -8.587312e-01
   outer loop
     vertex  1.116189e+01 -6.330222e+01 -7.660444e+01
     vertex -1.116189e+01 -6.330222e+01 -7.660444e+01
     vertex -3.666030e-14 -3.420201e+01 -9.396926e+01
   endloop
 endfacet
 facet normal -8.252713e-01  4.764706e-01 -3.031551e-01
   outer loop
     vertex -9.254166e+01  3.368241e+01 -1.736482e+01
     vertex -7.544065e+01  6.330222e+01 -1.736482e+01
     vertex -7.500000e+01  4.330127e+01 -5.000000e+01
   endloop
 endfacet
 facet normal -8.711894e-01  3.170870e-01 -3.748130e-01
   outer loop
     vertex -9.254166e+01  3.368241e+01 -1.736482e+01
     vertex -7.500000e+01  4.330127e+01 -5.000000e+01
     vertex -8.528685e+01  1.503837e+01 -5.000000e+01
   endloop
 endfacet
 facet normal  8.492572e-01  3.010737e-01  4.337243e-01
   outer loop
     vertex  6.634139e+01  5.566704e+01  5.000000e+01
     vertex  9.350162e+01 -2.290129e-14  3.546049e+01
     vertex  8.528685e+01  4.924039e+01  1.736482e+01
   endloop
 endfacet
 facet normal  8.302802e-01  4.793625e-01 -2.843349e-01
   outer loop
     vertex  6.634139e+01  5.566704e+01  5.000000e+01
     vertex  8.137977e+01  2.961981e+01  5.000000e+01
     vertex  9.350162e+01 -2.290129e-14  3.546049e+01
   endloop
 endfacet
 facet normal  7.299953e-01  6.125388e-01  3.031551e-01
   outer loop
     vertex  6.634139e+01  5.566704e+01  5.000000e+01
     vertex  8.528685e+01  4.924039e+01  1.736482e+01
     vertex  6.330222e+01  7.544065e+01  1.736482e+01
   endloop
 endfacet
 facet normal  2.526624e-01 -9.196160e-02 -9.631743e-01
   outer loop
     vertex  3.368241e+01 -5.939117e+00 -9.396926e+01
     vertex  2.961981e+01 -1.710101e+01 -9.396926e+01
     vertex  2.393157e+01 -5.861543e-15 -9.709418e+01
   endloop
 endfacet
 facet normal  4.484468e-01 -1.632213e-01 -8.787800e-01
   outer loop
     vertex  3.368241e+01 -5.939117e+00 -9.396926e+01
     vertex  4.647232e+01 -1.138243e-14 -8.854560e+01
     vertex  2.961981e+01 -1.710101e+01 -9.396926e+01
   endloop
 endfacet
 facet normal  3.531704e-01  8.985814e-02 -9.312337e-01
   outer loop
     vertex  3.368241e+01 -5.939117e+00 -9.396926e+01
     vertex  2.393157e+01 -5.861543e-15 -9.709418e+01
     vertex  4.647232e+01 -1.138243e-14 -8.854560e+01
   endloop
 endfacet
 facet normal -6.012047e-01 -5.044706e-01 -6.197276e-01
   outer loop
     vertex -5.566704e+01 -6.634139e+01 -5.000000e+01
     vertex -7.500000e+01 -4.330127e+01 -5.000000e+01
     vertex -4.924039e+01 -4.131759e+01 -7.660444e+01
   endloop
 endfacet
 facet normal -4.835539e-01 -5.762771e-01 -6.588477e-01
   outer loop
     vertex -5.566704e+01 -6.634139e+01 -5.000000e+01
     vertex -4.924039e+01 -4.131759e+01 -7.660444e+01
     vertex -3.213938e+01 -5.566704e+01 -7.660444e+01
   endloop
 endfacet
 facet normal -1.734873e-01  9.838952e-01  4.303984e-02
   outer loop
     vertex -3.368241e+01  9.254166e+01  1.736482e+01
     vertex  6.030208e-15  9.848078e+01  1.736482e+01
     vertex -1.710101e+01  9.698463e+01 -1.736482e+01
   endloop
 endfacet
 facet normal -3.417032e-01  9.388219e-01 -4.303984e-02
   outer loop
     vertex -3.368241e+01  9.254166e+01  1.736482e+01
     vertex -1.710101e+01  9.698463e+01 -1.736482e+01
     vertex -4.924039e+01  8.528685e+01 -1.736482e+01
   endloop
 endfacet
 facet normal  1.752601e-01 -4.815232e-01 -8.587312e-01
   outer loop
     vertex  3.213938e+01 -5.566704e+01 -7.660444e+01
     vertex  1.116189e+01 -6.330222e+01 -7.660444e+01
     vertex  1.169778e+01 -3.213938e+01 -9.396926e+01
   endloop
 endfacet
 facet normal  2.467955e-01 -4.274623e-01 -8.696942e-01
   outer loop
     vertex  3.213938e+01 -5.566704e+01 -7.660444e+01
     vertex  1.169778e+01 -3.213938e+01 -9.396926e+01
     vertex  2.198463e+01 -2.620026e+01 -9.396926e+01
   endloop
 endfacet
 facet normal -9.384639e-01  1.654765e-01 -3.031551e-01
   outer loop
     vertex -9.848078e+01  1.206042e-14 -1.736482e+01
     vertex -9.254166e+01  3.368241e+01 -1.736482e+01
     vertex -8.528685e+01  1.503837e+01 -5.000000e+01
   endloop
 endfacet
 facet normal -9.271004e-01  0.000000e+00 -3.748130e-01
   outer loop
     vertex -9.848078e+01  1.206042e-14 -1.736482e+01
     vertex -8.528685e+01  1.503837e+01 -5.000000e+01
     vertex -8.528685e+01 -1.503837e+01 -5.000000e+01
   endloop
 endfacet
 facet normal  5.959287e-01  7.102001e-01  3.748130e-01
   outer loop
     vertex  4.330127e+01  7.500000e+01  5.000000e+01
     vertex  6.634139e+01  5.566704e+01  5.000000e+01
     vertex  6.330222e+01  7.544065e+01  1.736482e+01
   endloop
 endfacet
 facet normal  4.764706e-01  8.252713e-01  3.031551e-01
   outer loop
     vertex  4.330127e+01  7.500000e+01  5.000000e+01
     vertex  6.330222e+01  7.544065e+01  1.736482e+01
     vertex  3.368241e+01  9.254166e+01  1.736482e+01
   endloop
 endfacet
 facet normal -3.924085e-01 -6.796715e-01 -6.197276e-01
   outer loop
     vertex -2.961981e+01 -8.137977e+01 -5.000000e+01
     vertex -5.566704e+01 -6.634139e+01 -5.000000e+01
     vertex -3.213938e+01 -5.566704e+01 -7.660444e+01
   endloop
 endfacet
 facet normal -2.572937e-01 -7.069085e-01 -6.588477e-01
   outer loop
     vertex -2.961981e+01 -8.137977e+01 -5.000000e+01
     vertex -3.213938e+01 -5.566704e+01 -7.660444e+01
     vertex -1.116189e+01 -6.330222e+01 -7.660444e+01
   endloop
 endfacet
 facet normal -6.421920e-01  7.653346e-01 -4.303984e-02
   outer loop
     vertex -6.330222e+01  7.544065e+01  1.736482e+01
     vertex -4.924039e+01  8.528685e+01 -1.736482e+01
     vertex -7.544065e+01  6.330222e+01 -1.736482e+01
   endloop
 endfacet
 facet normal -4.995367e-01  8.652229e-01  4.303984e-02
   outer loop
     vertex -6.330222e+01  7.544065e+01  1.736482e+01
     vertex -3.368241e+01  9.254166e+01  1.736482e+01
     vertex -4.924039e+01  8.528685e+01 -1.736482e+01
   endloop
 endfacet
 facet normal  7.449648e-01  9.722240e-02  6.599812e-01
   outer loop
     vertex  6.330222e+01  1.116189e+01  7.660444e+01
     vertex  6.631227e+01 -1.624182e-14  7.485107e+01
     vertex  8.229839e+01 -2.015729e-14  5.680647e+01
   endloop
 endfacet
 facet normal  5.679024e-01  2.390533e-02  8.227487e-01
   outer loop
     vertex  6.330222e+01  1.116189e+01  7.660444e+01
     vertex  4.647232e+01 -1.138243e-14  8.854560e+01
     vertex  6.631227e+01 -1.624182e-14  7.485107e+01
   endloop
 endfacet
 facet normal  3.781126e-01 -3.172741e-01 -8.696942e-01
   outer loop
     vertex  4.924039e+01 -4.131759e+01 -7.660444e+01
     vertex  2.198463e+01 -2.620026e+01 -9.396926e+01
     vertex  2.961981e+01 -1.710101e+01 -9.396926e+01
   endloop
 endfacet
 facet normal  3.293813e-01 -3.925413e-01 -8.587312e-01
   outer loop
     vertex  4.924039e+01 -4.131759e+01 -7.660444e+01
     vertex  3.213938e+01 -5.566704e+01 -7.660444e+01
     vertex  2.198463e+01 -2.620026e+01 -9.396926e+01
   endloop
 endfacet
 facet normal -9.384639e-01 -1.654765e-01 -3.031551e-01
   outer loop
     vertex -9.254166e+01 -3.368241e+01 -1.736482e+01
     vertex -9.848078e+01  1.206042e-14 -1.736482e+01
     vertex -8.528685e+01 -1.503837e+01 -5.000000e+01
   endloop
 endfacet
 facet normal -8.711894e-01 -3.170870e-01 -3.748130e-01
   outer loop
     vertex -9.254166e+01 -3.368241e+01 -1.736482e+01
     vertex -8.528685e+01 -1.503837e+01 -5.000000e+01
     vertex -7.500000e+01 -4.330127e+01 -5.000000e+01
   endloop
 endfacet
 facet normal  1.654765e-01  9.384639e-01  3.031551e-01
   outer loop
     vertex  1.503837e+01  8.528685e+01  5.000000e+01
     vertex  3.368241e+01  9.254166e+01  1.736482e+01
     vertex  6.030208e-15  9.848078e+01  1.736482e+01
   endloop
 endfacet
 facet normal  3.170870e-01  8.711894e-01  3.748130e-01
   outer loop
     vertex  1.503837e+01  8.528685e+01  5.000000e+01
     vertex  4.330127e+01  7.500000e+01  5.000000e+01
     vertex  3.368241e+01  9.254166e+01  1.736482e+01
   endloop
 endfacet
 facet normal -1.362820e-01 -7.728939e-01 -6.197276e-01
   outer loop
     vertex -9.282714e-14 -8.660254e+01 -5.000000e+01
     vertex -2.961981e+01 -8.137977e+01 -5.000000e+01
     vertex -1.116189e+01 -6.330222e+01 -7.660444e+01
   endloop
 endfacet
 facet normal -7.200053e-16 -7.522763e-01 -6.588477e-01
   outer loop
     vertex -9.282714e-14 -8.660254e+01 -5.000000e+01
     vertex -1.116189e+01 -6.330222e+01 -7.660444e+01
     vertex  1.116189e+01 -6.330222e+01 -7.660444e+01
   endloop
 endfacet
 facet normal -7.653346e-01  6.421920e-01  4.303984e-02
   outer loop
     vertex -8.528685e+01  4.924039e+01  1.736482e+01
     vertex -6.330222e+01  7.544065e+01  1.736482e+01
     vertex -7.544065e+01  6.330222e+01 -1.736482e+01
   endloop
 endfacet
 facet normal -8.652229e-01  4.995367e-01 -4.303984e-02
   outer loop
     vertex -8.528685e+01  4.924039e+01  1.736482e+01
     vertex -7.544065e+01  6.330222e+01 -1.736482e+01
     vertex -9.254166e+01  3.368241e+01 -1.736482e+01
   endloop
 endfacet
 facet normal  6.796715e-01  3.924085e-01  6.197276e-01
   outer loop
     vertex  5.566704e+01  3.213938e+01  7.660444e+01
     vertex  8.137977e+01  2.961981e+01  5.000000e+01
     vertex  6.634139e+01  5.566704e+01  5.000000e+01
   endloop
 endfacet
 facet normal  7.666404e-01  2.790343e-01  5.782753e-01
   outer loop
     vertex  5.566704e+01  3.213938e+01  7.660444e+01
     vertex  6.330222e+01  1.116189e+01  7.660444e+01
     vertex  8.229839e+01 -2.015729e-14  5.680647e+01
   endloop
 endfacet
 facet normal  4.883195e-01  1.777337e-01  8.543739e-01
   outer loop
     vertex  5.566704e+01  3.213938e+01  7.660444e+01
     vertex  4.647232e+01 -1.138243e-14  8.854560e+01
     vertex  6.330222e+01  1.116189e+01  7.660444e+01
   endloop
 endfacet
 facet normal  7.159947e-01  1.773628e-01  6.751992e-01
   outer loop
     vertex  5.566704e+01  3.213938e+01  7.660444e+01
     vertex  8.229839e+01 -2.015729e-14  5.680647e+01
     vertex  8.137977e+01  2.961981e+01  5.000000e+01
   endloop
 endfacet
 facet normal  4.616172e-01 -1.793803e-01 -8.687533e-01
   outer loop
     vertex  6.040228e+01 -2.198463e+01 -7.660444e+01
     vertex  2.961981e+01 -1.710101e+01 -9.396926e+01
     vertex  4.647232e+01 -1.138243e-14 -8.854560e+01
   endloop
 endfacet
 facet normal  5.659235e-01 -8.674449e-02 -8.198817e-01
   outer loop
     vertex  6.040228e+01 -2.198463e+01 -7.660444e+01
     vertex  4.647232e+01 -1.138243e-14 -8.854560e+01
     vertex  6.631227e+01 -1.624182e-14 -7.485107e+01
   endloop
 endfacet
 facet normal  7.404098e-01 -1.467251e-01 -6.559459e-01
   outer loop
     vertex  6.040228e+01 -2.198463e+01 -7.660444e+01
     vertex  6.631227e+01 -1.624182e-14 -7.485107e+01
     vertex  8.229839e+01 -2.015729e-14 -5.680647e+01
   endloop
 endfacet
 facet normal  4.437742e-01 -2.562131e-01 -8.587312e-01
   outer loop
     vertex  6.040228e+01 -2.198463e+01 -7.660444e+01
     vertex  4.924039e+01 -4.131759e+01 -7.660444e+01
     vertex  2.961981e+01 -1.710101e+01 -9.396926e+01
   endloop
 endfacet
 facet normal -7.102001e-01 -5.959287e-01 -3.748130e-01
   outer loop
     vertex -7.544065e+01 -6.330222e+01 -1.736482e+01
     vertex -7.500000e+01 -4.330127e+01 -5.000000e+01
     vertex -5.566704e+01 -6.634139e+01 -5.000000e+01
   endloop
 endfacet
 facet normal -8.252713e-01 -4.764706e-01 -3.031551e-01
   outer loop
     vertex -7.544065e+01 -6.330222e+01 -1.736482e+01
     vertex -9.254166e+01 -3.368241e+01 -1.736482e+01
     vertex -7.500000e+01 -4.330127e+01 -5.000000e+01
   endloop
 endfacet
 facet normal -0.000000e+00  9.271004e-01  3.748130e-01
   outer loop
     vertex -1.503837e+01  8.528685e+01  5.000000e+01
     vertex  1.503837e+01  8.528685e+01  5.000000e+01
     vertex  6.030208e-15  9.848078e+01  1.736482e+01
   endloop
 endfacet
 facet normal -1.654765e-01  9.384639e-01  3.031551e-01
   outer loop
     vertex -1.503837e+01  8.528685e+01  5.000000e+01
     vertex  6.030208e-15  9.848078e+01  1.736482e+01
     vertex -3.368241e+01  9.254166e+01  1.736482e+01
   endloop
 endfacet
 facet normal  1.362820e-01 -7.728939e-01 -6.197276e-01
   outer loop
     vertex  2.961981e+01 -8.137977e+01 -5.000000e+01
     vertex -9.282714e-14 -8.660254e+01 -5.000000e+01
     vertex  1.116189e+01 -6.330222e+01 -7.660444e+01
   endloop
 endfacet
 facet normal  2.572937e-01 -7.069085e-01 -6.588477e-01
   outer loop
     vertex  2.961981e+01 -8.137977e+01 -5.000000e+01
     vertex  1.116189e+01 -6.330222e+01 -7.660444e+01
     vertex  3.213938e+01 -5.566704e+01 -7.660444e+01
   endloop
 endfacet
 facet normal -9.388219e-01  3.417032e-01  4.303984e-02
   outer loop
     vertex -9.698463e+01  1.710101e+01  1.736482e+01
     vertex -8.528685e+01  4.924039e+01  1.736482e+01
     vertex -9.254166e+01  3.368241e+01 -1.736482e+01
   endloop
 endfacet
 facet normal -9.838952e-01  1.734873e-01 -4.303984e-02
   outer loop
     vertex -9.698463e+01  1.710101e+01  1.736482e+01
     vertex -9.254166e+01  3.368241e+01 -1.736482e+01
     vertex -9.848078e+01  1.206042e-14 -1.736482e+01
   endloop
 endfacet
 facet normal  5.044706e-01  6.012047e-01  6.197276e-01
   outer loop
     vertex  4.131759e+01  4.924039e+01  7.660444e+01
     vertex  6.634139e+01  5.566704e+01  5.000000e+01
     vertex  4.330127e+01  7.500000e+01  5.000000e+01
   endloop
 endfacet
 facet normal  5.762771e-01  4.835539e-01  6.588477e-01
   outer loop
     vertex  4.131759e+01  4.924039e+01  7.660444e+01
     vertex  5.566704e+01  3.213938e+01  7.660444e+01
     vertex  6.634139e+01  5.566704e+01  5.000000e+01
   endloop
 endfacet
 facet normal -6.125388e-01 -7.299953e-01 -3.031551e-01
   outer loop
     vertex -4.924039e+01 -8.528685e+01 -1.736482e+01
     vertex -7.544065e+01 -6.330222e+01 -1.736482e+01
     vertex -5.566704e+01 -6.634139e+01 -5.000000e+01
   endloop
 endfacet
 facet normal -4.635502e-01 -8.028925e-01 -3.748130e-01
   outer loop
     vertex -4.924039e+01 -8.528685e+01 -1.736482e+01
     vertex -5.566704e+01 -6.634139e+01 -5.000000e+01
     vertex -2.961981e+01 -8.137977e+01 -5.000000e+01
   endloop
 endfacet
 facet normal -4.764706e-01  8.252713e-01  3.031551e-01
   outer loop
     vertex -4.330127e+01  7.500000e+01  5.000000e+01
     vertex -3.368241e+01  9.254166e+01  1.736482e+01
     vertex -6.330222e+01  7.544065e+01  1.736482e+01
   endloop
 endfacet
 facet normal -3.170870e-01  8.711894e-01  3.748130e-01
   outer loop
     vertex -4.330127e+01  7.500000e+01  5.000000e+01
     vertex -1.503837e+01  8.528685e+01  5.000000e+01
     vertex -3.368241e+01  9.254166e+01  1.736482e+01
   endloop
 endfacet
 facet normal  4.835539e-01 -5.762771e-01 -6.588477e-01
   outer loop
     vertex  5.566704e+01 -6.634139e+01 -5.000000e+01
     vertex  3.213938e+01 -5.566704e+01 -7.660444e+01
     vertex  4.924039e+01 -4.131759e+01 -7.660444e+01
   endloop
 endfacet
 facet normal  3.924085e-01 -6.796715e-01 -6.197276e-01
   outer loop
     vertex  5.566704e+01 -6.634139e+01 -5.000000e+01
     vertex  2.961981e+01 -8.137977e+01 -5.000000e+01
     vertex  3.213938e+01 -5.566704e+01 -7.660444e+01
   endloop
 endfacet
 facet normal -9.990734e-01  0.000000e+00  4.303984e-02
   outer loop
     vertex -9.698463e+01 -1.710101e+01  1.736482e+01
     vertex -9.698463e+01  1.710101e+01  1.736482e+01
     vertex -9.848078e+01  1.206042e-14 -1.736482e+01
   endloop
 endfacet
 facet normal -9.838952e-01 -1.734873e-01 -4.303984e-02
   outer loop
     vertex -9.698463e+01 -1.710101e+01  1.736482e+01
     vertex -9.848078e+01  1.206042e-14 -1.736482e+01
     vertex -9.254166e+01 -3.368241e+01 -1.736482e+01
   endloop
 endfacet
 facet normal  2.684232e-01  7.374867e-01  6.197276e-01
   outer loop
     vertex  2.198463e+01  6.040228e+01  7.660444e+01
     vertex  4.330127e+01  7.500000e+01  5.000000e+01
     vertex  1.503837e+01  8.528685e+01  5.000000e+01
   endloop
 endfacet
 facet normal  3.761382e-01  6.514904e-01  6.588477e-01
   outer loop
     vertex  2.198463e+01  6.040228e+01  7.660444e+01
     vertex  4.131759e+01  4.924039e+01  7.660444e+01
     vertex  4.330127e+01  7.500000e+01  5.000000e+01
   endloop
 endfacet
 facet normal -3.259251e-01 -8.954718e-01 -3.031551e-01
   outer loop
     vertex -1.710101e+01 -9.698463e+01 -1.736482e+01
     vertex -4.924039e+01 -8.528685e+01 -1.736482e+01
     vertex -2.961981e+01 -8.137977e+01 -5.000000e+01
   endloop
 endfacet
 facet normal -1.609893e-01 -9.130157e-01 -3.748130e-01
   outer loop
     vertex -1.710101e+01 -9.698463e+01 -1.736482e+01
     vertex -2.961981e+01 -8.137977e+01 -5.000000e+01
     vertex -9.282714e-14 -8.660254e+01 -5.000000e+01
   endloop
 endfacet
 facet normal -7.299953e-01  6.125388e-01  3.031551e-01
   outer loop
     vertex -6.634139e+01  5.566704e+01  5.000000e+01
     vertex -6.330222e+01  7.544065e+01  1.736482e+01
     vertex -8.528685e+01  4.924039e+01  1.736482e+01
   endloop
 endfacet
 facet normal -5.959287e-01  7.102001e-01  3.748130e-01
   outer loop
     vertex -6.634139e+01  5.566704e+01  5.000000e+01
     vertex -4.330127e+01  7.500000e+01  5.000000e+01
     vertex -6.330222e+01  7.544065e+01  1.736482e+01
   endloop
 endfacet
 facet normal  3.546047e-01  9.676762e-04  9.350158e-01
   outer loop
     vertex  3.213938e+01  1.169778e+01  9.396926e+01
     vertex  2.393157e+01 -5.861543e-15  9.709418e+01
     vertex  4.647232e+01 -1.138243e-14  8.854560e+01
   endloop
 endfacet
 facet normal  7.676602e-01 -2.237827e-01 -6.005157e-01
   outer loop
     vertex  7.500000e+01 -4.330127e+01 -5.000000e+01
     vertex  6.040228e+01 -2.198463e+01 -7.660444e+01
     vertex  8.229839e+01 -2.015729e-14 -5.680647e+01
   endloop
 endfacet
 facet normal  6.514904e-01 -3.761382e-01 -6.588477e-01
   outer loop
     vertex  7.500000e+01 -4.330127e+01 -5.000000e+01
     vertex  4.924039e+01 -4.131759e+01 -7.660444e+01
     vertex  6.040228e+01 -2.198463e+01 -7.660444e+01
   endloop
 endfacet
 facet normal  6.012047e-01 -5.044706e-01 -6.197276e-01
   outer loop
     vertex  7.500000e+01 -4.330127e+01 -5.000000e+01
     vertex  5.566704e+01 -6.634139e+01 -5.000000e+01
     vertex  4.924039e+01 -4.131759e+01 -7.660444e+01
   endloop
 endfacet
 facet normal -8.652229e-01 -4.995367e-01 -4.303984e-02
   outer loop
     vertex -8.528685e+01 -4.924039e+01  1.736482e+01
     vertex -9.254166e+01 -3.368241e+01 -1.736482e+01
     vertex -7.544065e+01 -6.330222e+01 -1.736482e+01
   endloop
 endfacet
 facet normal -9.388219e-01 -3.417032e-01  4.303984e-02
   outer loop
     vertex -8.528685e+01 -4.924039e+01  1.736482e+01
     vertex -9.698463e+01 -1.710101e+01  1.736482e+01
     vertex -9.254166e+01 -3.368241e+01 -1.736482e+01
   endloop
 endfacet
 facet normal  0.000000e+00  7.848170e-01  6.197276e-01
   outer loop
     vertex  3.935939e-15  6.427876e+01  7.660444e+01
     vertex  1.503837e+01  8.528685e+01  5.000000e+01
     vertex -1.503837e+01  8.528685e+01  5.000000e+01
   endloop
 endfacet
 facet normal  1.306314e-01  7.408476e-01  6.588477e-01
   outer loop
     vertex  3.935939e-15  6.427876e+01  7.660444e+01
     vertex  2.198463e+01  6.040228e+01  7.660444e+01
     vertex  1.503837e+01  8.528685e+01  5.000000e+01
   endloop
 endfacet
 facet normal -1.187834e-15 -9.529412e-01 -3.031551e-01
   outer loop
     vertex  1.710101e+01 -9.698463e+01 -1.736482e+01
     vertex -1.710101e+01 -9.698463e+01 -1.736482e+01
     vertex -9.282714e-14 -8.660254e+01 -5.000000e+01
   endloop
 endfacet
 facet normal  1.609893e-01 -9.130157e-01 -3.748130e-01
   outer loop
     vertex  1.710101e+01 -9.698463e+01 -1.736482e+01
     vertex -9.282714e-14 -8.660254e+01 -5.000000e+01
     vertex  2.961981e+01 -8.137977e+01 -5.000000e+01
   endloop
 endfacet
 facet normal -8.028925e-01  4.635502e-01  3.748130e-01
   outer loop
     vertex -8.137977e+01  2.961981e+01  5.000000e+01
     vertex -6.634139e+01  5.566704e+01  5.000000e+01
     vertex -8.528685e+01  4.924039e+01  1.736482e+01
   endloop
 endfacet
 facet normal -8.954718e-01  3.259251e-01  3.031551e-01
   outer loop
     vertex -8.137977e+01  2.961981e+01  5.000000e+01
     vertex -8.528685e+01  4.924039e+01  1.736482e+01
     vertex -9.698463e+01  1.710101e+01  1.736482e+01
   endloop
 endfacet
 facet normal  1.195512e-01  1.276140e-01  9.845924e-01
   outer loop
     vertex  2.620026e+01  2.198463e+01  9.396926e+01
     vertex  6.123234e-15 -1.499760e-30  1.000000e+02
     vertex  2.393157e+01 -5.861543e-15  9.709418e+01
   endloop
 endfacet
 facet normal  5.516396e-01  3.184893e-01  7.708815e-01
   outer loop
     vertex  2.620026e+01  2.198463e+01  9.396926e+01
     vertex  3.213938e+01  1.169778e+01  9.396926e+01
     vertex  4.647232e+01 -1.138243e-14  8.854560e+01
   endloop
 endfacet
 facet normal  2.030421e-01  1.172264e-01  9.721275e-01
   outer loop
     vertex  2.620026e+01  2.198463e+01  9.396926e+01
     vertex  2.393157e+01 -5.861543e-15  9.709418e+01
     vertex  3.213938e+01  1.169778e+01  9.396926e+01
   endloop
 endfacet
 facet normal  4.466518e-01  1.965220e-01  8.728581e-01
   outer loop
     vertex  2.620026e+01  2.198463e+01  9.396926e+01
     vertex  4.647232e+01 -1.138243e-14  8.854560e+01
     vertex  5.566704e+01  3.213938e+01  7.660444e+01
   endloop
 endfacet
 facet normal  3.925413e-01  3.293813e-01  8.587312e-01
   outer loop
     vertex  2.620026e+01  2.198463e+01  9.396926e+01
     vertex  5.566704e+01  3.213938e+01  7.660444e+01
     vertex  4.131759e+01  4.924039e+01  7.660444e+01
   endloop
 endfacet
 facet normal  6.110655e-01 -2.224097e-01 -7.596926e-01
   outer loop
     vertex  8.528685e+01 -1.503837e+01 -5.000000e+01
     vertex  7.500000e+01 -4.330127e+01 -5.000000e+01
     vertex  8.229839e+01 -2.015729e-14 -5.680647e+01
   endloop
 endfacet
 facet normal  8.849333e-01 -3.435648e-02 -4.644488e-01
   outer loop
     vertex  8.528685e+01 -1.503837e+01 -5.000000e+01
     vertex  8.229839e+01 -2.015729e-14 -5.680647e+01
     vertex  9.350162e+01 -2.290129e-14 -3.546049e+01
   endloop
 endfacet
 facet normal  9.252832e-01 -3.367756e-01 -1.744511e-01
   outer loop
     vertex  8.528685e+01 -1.503837e+01 -5.000000e+01
     vertex  9.350162e+01 -2.290129e-14 -3.546049e+01
     vertex  7.500000e+01 -4.330127e+01 -5.000000e+01
   endloop
 endfacet
 facet normal -7.653346e-01 -6.421920e-01  4.303984e-02
   outer loop
     vertex -6.330222e+01 -7.544065e+01  1.736482e+01
     vertex -8.528685e+01 -4.924039e+01  1.736482e+01
     vertex -7.544065e+01 -6.330222e+01 -1.736482e+01
   endloop
 endfacet
 facet normal -6.421920e-01 -7.653346e-01 -4.303984e-02
   outer loop
     vertex -6.330222e+01 -7.544065e+01  1.736482e+01
     vertex -7.544065e+01 -6.330222e+01 -1.736482e+01
     vertex -4.924039e+01 -8.528685e+01 -1.736482e+01
   endloop
 endfacet
 facet normal -1.306314e-01  7.408476e-01  6.588477e-01
   outer loop
     vertex -2.198463e+01  6.040228e+01  7.660444e+01
     vertex  3.935939e-15  6.427876e+01  7.660444e+01
     vertex -1.503837e+01  8.528685e+01  5.000000e+01
   endloop
 endfacet
 facet normal -2.684232e-01  7.374867e-01  6.197276e-01
   outer loop
     vertex -2.198463e+01  6.040228e+01  7.660444e+01
     vertex -1.503837e+01  8.528685e+01  5.000000e+01
     vertex -4.330127e+01  7.500000e+01  5.000000e+01
   endloop
 endfacet
 facet normal  3.259251e-01 -8.954718e-01 -3.031551e-01
   outer loop
     vertex  4.924039e+01 -8.528685e+01 -1.736482e+01
     vertex  1.710101e+01 -9.698463e+01 -1.736482e+01
     vertex  2.961981e+01 -8.137977e+01 -5.000000e+01
   endloop
 endfacet
 facet normal  4.635502e-01 -8.028925e-01 -3.748130e-01
   outer loop
     vertex  4.924039e+01 -8.528685e+01 -1.736482e+01
     vertex  2.961981e+01 -8.137977e+01 -5.000000e+01
     vertex  5.566704e+01 -6.634139e+01 -5.000000e+01
   endloop
 endfacet
 facet normal -9.130157e-01  1.609893e-01  3.748130e-01
   outer loop
     vertex -8.660254e+01  1.060575e-14  5.000000e+01
     vertex -8.137977e+01  2.961981e+01  5.000000e+01
     vertex -9.698463e+01  1.710101e+01  1.736482e+01
   endloop
 endfacet
 facet normal -9.529412e-01  0.000000e+00  3.031551e-01
   outer loop
     vertex -8.660254e+01  1.060575e-14  5.000000e+01
     vertex -9.698463e+01  1.710101e+01  1.736482e+01
     vertex -9.698463e+01 -1.710101e+01  1.736482e+01
   endloop
 endfacet
 facet normal  2.562131e-01  4.437742e-01  8.587312e-01
   outer loop
     vertex  1.710101e+01  2.961981e+01  9.396926e+01
     vertex  4.131759e+01  4.924039e+01  7.660444e+01
     vertex  2.198463e+01  6.040228e+01  7.660444e+01
   endloop
 endfacet
 facet normal  3.172741e-01  3.781126e-01  8.696942e-01
   outer loop
     vertex  1.710101e+01  2.961981e+01  9.396926e+01
     vertex  2.620026e+01  2.198463e+01  9.396926e+01
     vertex  4.131759e+01  4.924039e+01  7.660444e+01
   endloop
 endfacet
 facet normal  1.132877e-01  1.350110e-01  9.843464e-01
   outer loop
     vertex  1.710101e+01  2.961981e+01  9.396926e+01
     vertex  6.123234e-15 -1.499760e-30  1.000000e+02
     vertex  2.620026e+01  2.198463e+01  9.396926e+01
   endloop
 endfacet
 facet normal -4.995367e-01 -8.652229e-01  4.303984e-02
   outer loop
     vertex -3.368241e+01 -9.254166e+01  1.736482e+01
     vertex -6.330222e+01 -7.544065e+01  1.736482e+01
     vertex -4.924039e+01 -8.528685e+01 -1.736482e+01
   endloop
 endfacet
 facet normal -3.417032e-01 -9.388219e-01 -4.303984e-02
   outer loop
     vertex -3.368241e+01 -9.254166e+01  1.736482e+01
     vertex -4.924039e+01 -8.528685e+01 -1.736482e+01
     vertex -1.710101e+01 -9.698463e+01 -1.736482e+01
   endloop
 endfacet
 facet normal -5.044706e-01  6.012047e-01  6.197276e-01
   outer loop
     vertex -4.131759e+01  4.924039e+01  7.660444e+01
     vertex -4.330127e+01  7.500000e+01  5.000000e+01
     vertex -6.634139e+01  5.566704e+01  5.000000e+01
   endloop
 endfacet
 facet normal -3.761382e-01  6.514904e-01  6.588477e-01
   outer loop
     vertex -4.131759e+01  4.924039e+01  7.660444e+01
     vertex -2.198463e+01  6.040228e+01  7.660444e+01
     vertex -4.330127e+01  7.500000e+01  5.000000e+01
   endloop
 endfacet
 facet normal  7.102001e-01 -5.959287e-01 -3.748130e-01
   outer loop
     vertex  7.544065e+01 -6.330222e+01 -1.736482e+01
     vertex  5.566704e+01 -6.634139e+01 -5.000000e+01
     vertex  7.500000e+01 -4.330127e+01 -5.000000e+01
   endloop
 endfacet
 facet normal  9.225037e-01 -3.234258e-01 -2.106722e-01
   outer loop
     vertex  7.544065e+01 -6.330222e+01 -1.736482e+01
     vertex  7.500000e+01 -4.330127e+01 -5.000000e+01
     vertex  9.350162e+01 -2.290129e-14 -3.546049e+01
   endloop
 endfacet
 facet normal  6.125388e-01 -7.299953e-01 -3.031551e-01
   outer loop
     vertex  7.544065e+01 -6.330222e+01 -1.736482e+01
     vertex  4.924039e+01 -8.528685e+01 -1.736482e+01
     vertex  5.566704e+01 -6.634139e+01 -5.000000e+01
   endloop
 endfacet
 facet normal -8.954718e-01 -3.259251e-01  3.031551e-01
   outer loop
     vertex -8.137977e+01 -2.961981e+01  5.000000e+01
     vertex -9.698463e+01 -1.710101e+01  1.736482e+01
     vertex -8.528685e+01 -4.924039e+01  1.736482e+01
   endloop
 endfacet
 facet normal -9.130157e-01 -1.609893e-01  3.748130e-01
   outer loop
     vertex -8.137977e+01 -2.961981e+01  5.000000e+01
     vertex -8.660254e+01  1.060575e-14  5.000000e+01
     vertex -9.698463e+01 -1.710101e+01  1.736482e+01
   endloop
 endfacet
 facet normal  1.688180e-01  4.638237e-01  8.696942e-01
   outer loop
     vertex  5.939117e+00  3.368241e+01  9.396926e+01
     vertex  1.710101e+01  2.961981e+01  9.396926e+01
     vertex  2.198463e+01  6.040228e+01  7.660444e+01
   endloop
 endfacet
 facet normal  6.027913e-02  1.656155e-01  9.843464e-01
   outer loop
     vertex  5.939117e+00  3.368241e+01  9.396926e+01
     vertex  6.123234e-15 -1.499760e-30  1.000000e+02
     vertex  1.710101e+01  2.961981e+01  9.396926e+01
   endloop
 endfacet
 facet normal  8.898189e-02  5.046414e-01  8.587312e-01
   outer loop
     vertex  5.939117e+00  3.368241e+01  9.396926e+01
     vertex  2.198463e+01  6.040228e+01  7.660444e+01
     vertex  3.935939e-15  6.427876e+01  7.660444e+01
   endloop
 endfacet
 facet normal -1.243080e-15 -9.990734e-01 -4.303984e-02
   outer loop
     vertex -1.055591e-13 -9.848078e+01  1.736482e+01
     vertex -1.710101e+01 -9.698463e+01 -1.736482e+01
     vertex  1.710101e+01 -9.698463e+01 -1.736482e+01
   endloop
 endfacet
 facet normal -1.734873e-01 -9.838952e-01  4.303984e-02
   outer loop
     vertex -1.055591e-13 -9.848078e+01  1.736482e+01
     vertex -3.368241e+01 -9.254166e+01  1.736482e+01
     vertex -1.710101e+01 -9.698463e+01 -1.736482e+01
   endloop
 endfacet
 facet normal -5.762771e-01  4.835539e-01  6.588477e-01
   outer loop
     vertex -5.566704e+01  3.213938e+01  7.660444e+01
     vertex -4.131759e+01  4.924039e+01  7.660444e+01
     vertex -6.634139e+01  5.566704e+01  5.000000e+01
   endloop
 endfacet
 facet normal -6.796715e-01  3.924085e-01  6.197276e-01
   outer loop
     vertex -5.566704e+01  3.213938e+01  7.660444e+01
     vertex -6.634139e+01  5.566704e+01  5.000000e+01
     vertex -8.137977e+01  2.961981e+01  5.000000e+01
   endloop
 endfacet
 facet normal  6.486120e-01 -3.744763e-01 -6.626236e-01
   outer loop
     vertex  9.254166e+01 -3.368241e+01 -1.736482e+01
     vertex  7.544065e+01 -6.330222e+01 -1.736482e+01
     vertex  9.350162e+01 -2.290129e-14 -3.546049e+01
   endloop
 endfacet
 facet normal  9.593032e-01 -1.543704e-01 -2.364470e-01
   outer loop
     vertex  9.254166e+01 -3.368241e+01 -1.736482e+01
     vertex  9.350162e+01 -2.290129e-14 -3.546049e+01
     vertex  9.927089e+01 -2.431435e-14 -1.205367e+01
   endloop
 endfacet
 facet normal  9.806213e-01 -1.959131e-01 -1.750529e-15
   outer loop
     vertex  9.254166e+01 -3.368241e+01 -1.736482e+01
     vertex  9.927089e+01 -2.431435e-14 -1.205367e+01
     vertex  9.927089e+01 -2.431435e-14  1.205367e+01
   endloop
 endfacet
 facet normal -8.028925e-01 -4.635502e-01  3.748130e-01
   outer loop
     vertex -6.634139e+01 -5.566704e+01  5.000000e+01
     vertex -8.137977e+01 -2.961981e+01  5.000000e+01
     vertex -8.528685e+01 -4.924039e+01  1.736482e+01
   endloop
 endfacet
 facet normal -7.299953e-01 -6.125388e-01  3.031551e-01
   outer loop
     vertex -6.634139e+01 -5.566704e+01  5.000000e+01
     vertex -8.528685e+01 -4.924039e+01  1.736482e+01
     vertex -6.330222e+01 -7.544065e+01  1.736482e+01
   endloop
 endfacet
 facet normal -0.000000e+00  1.762444e-01  9.843464e-01
   outer loop
     vertex -5.939117e+00  3.368241e+01  9.396926e+01
     vertex  6.123234e-15 -1.499760e-30  1.000000e+02
     vertex  5.939117e+00  3.368241e+01  9.396926e+01
   endloop
 endfacet
 facet normal -0.000000e+00  4.935909e-01  8.696942e-01
   outer loop
     vertex -5.939117e+00  3.368241e+01  9.396926e+01
     vertex  5.939117e+00  3.368241e+01  9.396926e+01
     vertex  3.935939e-15  6.427876e+01  7.660444e+01
   endloop
 endfacet
 facet normal -8.898189e-02  5.046414e-01  8.587312e-01
   outer loop
     vertex -5.939117e+00  3.368241e+01  9.396926e+01
     vertex  3.935939e-15  6.427876e+01  7.660444e+01
     vertex -2.198463e+01  6.040228e+01  7.660444e+01
   endloop
 endfacet
 facet normal  1.734873e-01 -9.838952e-01  4.303984e-02
   outer loop
     vertex  3.368241e+01 -9.254166e+01  1.736482e+01
     vertex -1.055591e-13 -9.848078e+01  1.736482e+01
     vertex  1.710101e+01 -9.698463e+01 -1.736482e+01
   endloop
 endfacet
 facet normal  3.417032e-01 -9.388219e-01 -4.303984e-02
   outer loop
     vertex  3.368241e+01 -9.254166e+01  1.736482e+01
     vertex  1.710101e+01 -9.698463e+01 -1.736482e+01
     vertex  4.924039e+01 -8.528685e+01 -1.736482e+01
   endloop
 endfacet
 facet normal -7.728939e-01  1.362820e-01  6.197276e-01
   outer loop
     vertex -6.330222e+01  1.116189e+01  7.660444e+01
     vertex -8.137977e+01  2.961981e+01  5.000000e+01
     vertex -8.660254e+01  1.060575e-14  5.000000e+01
   endloop
 endfacet
 facet normal -7.069085e-01  2.572937e-01  6.588477e-01
   outer loop
     vertex -6.330222e+01  1.116189e+01  7.660444e+01
     vertex -5.566704e+01  3.213938e+01  7.660444e+01
     vertex -8.137977e+01  2.961981e+01  5.000000e+01
   endloop
 endfacet
 facet normal -4.764706e-01 -8.252713e-01  3.031551e-01
   outer loop
     vertex -4.330127e+01 -7.500000e+01  5.000000e+01
     vertex -6.330222e+01 -7.544065e+01  1.736482e+01
     vertex -3.368241e+01 -9.254166e+01  1.736482e+01
   endloop
 endfacet
 facet normal -5.959287e-01 -7.102001e-01  3.748130e-01
   outer loop
     vertex -4.330127e+01 -7.500000e+01  5.000000e+01
     vertex -6.634139e+01 -5.566704e+01  5.000000e+01
     vertex -6.330222e+01 -7.544065e+01  1.736482e+01
   endloop
 endfacet
 facet normal -2.562131e-01  4.437742e-01  8.587312e-01
   outer loop
     vertex -1.710101e+01  2.961981e+01  9.396926e+01
     vertex -2.198463e+01  6.040228e+01  7.660444e+01
     vertex -4.131759e+01  4.924039e+01  7.660444e+01
   endloop
 endfacet
 facet normal -1.688180e-01  4.638237e-01  8.696942e-01
   outer loop
     vertex -1.710101e+01  2.961981e+01  9.396926e+01
     vertex -5.939117e+00  3.368241e+01  9.396926e+01
     vertex -2.198463e+01  6.040228e+01  7.660444e+01
   endloop
 endfacet
 facet normal -6.027913e-02  1.656155e-01  9.843464e-01
   outer loop
     vertex -1.710101e+01  2.961981e+01  9.396926e+01
     vertex  6.123234e-15 -1.499760e-30  1.000000e+02
     vertex -5.939117e+00  3.368241e+01  9.396926e+01
   endloop
 endfacet
 facet normal  6.421920e-01 -7.653346e-01 -4.303984e-02
   outer loop
     vertex  6.330222e+01 -7.544065e+01  1.736482e+01
     vertex  4.924039e+01 -8.528685e+01 -1.736482e+01
     vertex  7.544065e+01 -6.330222e+01 -1.736482e+01
   endloop
 endfacet
 facet normal  4.995367e-01 -8.652229e-01  4.303984e-02
   outer loop
     vertex  6.330222e+01 -7.544065e+01  1.736482e+01
     vertex  3.368241e+01 -9.254166e+01  1.736482e+01
     vertex  4.924039e+01 -8.528685e+01 -1.736482e+01
   endloop
 endfacet
 facet normal -7.522763e-01  0.000000e+00  6.588477e-01
   outer loop
     vertex -6.330222e+01 -1.116189e+01  7.660444e+01
     vertex -6.330222e+01  1.116189e+01  7.660444e+01
     vertex -8.660254e+01  1.060575e-14  5.000000e+01
   endloop
 endfacet
 facet normal -7.728939e-01 -1.362820e-01  6.197276e-01
   outer loop
     vertex -6.330222e+01 -1.116189e+01  7.660444e+01
     vertex -8.660254e+01  1.060575e-14  5.000000e+01
     vertex -8.137977e+01 -2.961981e+01  5.000000e+01
   endloop
 endfacet
 facet normal -1.654765e-01 -9.384639e-01  3.031551e-01
   outer loop
     vertex -1.503837e+01 -8.528685e+01  5.000000e+01
     vertex -3.368241e+01 -9.254166e+01  1.736482e+01
     vertex -1.055591e-13 -9.848078e+01  1.736482e+01
   endloop
 endfacet
 facet normal -3.170870e-01 -8.711894e-01  3.748130e-01
   outer loop
     vertex -1.503837e+01 -8.528685e+01  5.000000e+01
     vertex -4.330127e+01 -7.500000e+01  5.000000e+01
     vertex -3.368241e+01 -9.254166e+01  1.736482e+01
   endloop
 endfacet
 facet normal -3.925413e-01  3.293813e-01  8.587312e-01
   outer loop
     vertex -2.620026e+01  2.198463e+01  9.396926e+01
     vertex -4.131759e+01  4.924039e+01  7.660444e+01
     vertex -5.566704e+01  3.213938e+01  7.660444e+01
   endloop
 endfacet
 facet normal -3.172741e-01  3.781126e-01  8.696942e-01
   outer loop
     vertex -2.620026e+01  2.198463e+01  9.396926e+01
     vertex -1.710101e+01  2.961981e+01  9.396926e+01
     vertex -4.131759e+01  4.924039e+01  7.660444e+01
   endloop
 endfacet
 facet normal -1.132877e-01  1.350110e-01  9.843464e-01
   outer loop
     vertex -2.620026e+01  2.198463e+01  9.396926e+01
     vertex  6.123234e-15 -1.499760e-30  1.000000e+02
     vertex -1.710101e+01  2.961981e+01  9.396926e+01
   endloop
 endfacet
 facet normal  8.652229e-01 -4.995367e-01 -4.303984e-02
   outer loop
     vertex  8.528685e+01 -4.924039e+01  1.736482e+01
     vertex  7.544065e+01 -6.330222e+01 -1.736482e+01
     vertex  9.254166e+01 -3.368241e+01 -1.736482e+01
   endloop
 endfacet
 facet normal  7.653346e-01 -6.421920e-01  4.303984e-02
   outer loop
     vertex  8.528685e+01 -4.924039e+01  1.736482e+01
     vertex  6.330222e+01 -7.544065e+01  1.736482e+01
     vertex  7.544065e+01 -6.330222e+01 -1.736482e+01
   endloop
 endfacet
 facet normal  9.609851e-01 -2.640198e-01  8.246974e-02
   outer loop
     vertex  8.528685e+01 -4.924039e+01  1.736482e+01
     vertex  9.254166e+01 -3.368241e+01 -1.736482e+01
     vertex  9.927089e+01 -2.431435e-14  1.205367e+01
   endloop
 endfacet
 facet normal -6.796715e-01 -3.924085e-01  6.197276e-01
   outer loop
     vertex -5.566704e+01 -3.213938e+01  7.660444e+01
     vertex -8.137977e+01 -2.961981e+01  5.000000e+01
     vertex -6.634139e+01 -5.566704e+01  5.000000e+01
   endloop
 endfacet
 facet normal -7.069085e-01 -2.572937e-01  6.588477e-01
   outer loop
     vertex -5.566704e+01 -3.213938e+01  7.660444e+01
     vertex -6.330222e+01 -1.116189e+01  7.660444e+01
     vertex -8.137977e+01 -2.961981e+01  5.000000e+01
   endloop
 endfacet
 facet normal -8.760847e-16 -9.271004e-01  3.748130e-01
   outer loop
     vertex  1.503837e+01 -8.528685e+01  5.000000e+01
     vertex -1.503837e+01 -8.528685e+01  5.000000e+01
     vertex -1.055591e-13 -9.848078e+01  1.736482e+01
   endloop
 endfacet
 facet normal  1.654765e-01 -9.384639e-01  3.031551e-01
   outer loop
     vertex  1.503837e+01 -8.528685e+01  5.000000e+01
     vertex -1.055591e-13 -9.848078e+01  1.736482e+01
     vertex  3.368241e+01 -9.254166e+01  1.736482e+01
   endloop
 endfacet
 facet normal -1.526321e-01  8.812219e-02  9.843464e-01
   outer loop
     vertex -3.213938e+01  1.169778e+01  9.396926e+01
     vertex  6.123234e-15 -1.499760e-30  1.000000e+02
     vertex -2.620026e+01  2.198463e+01  9.396926e+01
   endloop
 endfacet
 facet normal -4.815232e-01  1.752601e-01  8.587312e-01
   outer loop
     vertex -3.213938e+01  1.169778e+01  9.396926e+01
     vertex -5.566704e+01  3.213938e+01  7.660444e+01
     vertex -6.330222e+01  1.116189e+01  7.660444e+01
   endloop
 endfacet
 facet normal -4.274623e-01  2.467955e-01  8.696942e-01
   outer loop
     vertex -3.213938e+01  1.169778e+01  9.396926e+01
     vertex -2.620026e+01  2.198463e+01  9.396926e+01
     vertex -5.566704e+01  3.213938e+01  7.660444e+01
   endloop
 endfacet
 facet normal  9.694509e-01 -5.539578e-02  2.389482e-01
   outer loop
     vertex  9.698463e+01 -1.710101e+01  1.736482e+01
     vertex  9.927089e+01 -2.431435e-14  1.205367e+01
     vertex  9.350162e+01 -2.290129e-14  3.546049e+01
   endloop
 endfacet
 facet normal  8.391094e-01 -3.054108e-01  4.501329e-01
   outer loop
     vertex  9.698463e+01 -1.710101e+01  1.736482e+01
     vertex  9.350162e+01 -2.290129e-14  3.546049e+01
     vertex  8.528685e+01 -4.924039e+01  1.736482e+01
   endloop
 endfacet
 facet normal  7.710038e-01 -2.806224e-01 -5.716679e-01
   outer loop
     vertex  9.698463e+01 -1.710101e+01  1.736482e+01
     vertex  8.528685e+01 -4.924039e+01  1.736482e+01
     vertex  9.927089e+01 -2.431435e-14  1.205367e+01
   endloop
 endfacet
 facet normal -5.762771e-01 -4.835539e-01  6.588477e-01
   outer loop
     vertex -4.131759e+01 -4.924039e+01  7.660444e+01
     vertex -5.566704e+01 -3.213938e+01  7.660444e+01
     vertex -6.634139e+01 -5.566704e+01  5.000000e+01
   endloop
 endfacet
 facet normal -5.044706e-01 -6.012047e-01  6.197276e-01
   outer loop
     vertex -4.131759e+01 -4.924039e+01  7.660444e+01
     vertex -6.634139e+01 -5.566704e+01  5.000000e+01
     vertex -4.330127e+01 -7.500000e+01  5.000000e+01
   endloop
 endfacet
 facet normal  3.170870e-01 -8.711894e-01  3.748130e-01
   outer loop
     vertex  4.330127e+01 -7.500000e+01  5.000000e+01
     vertex  1.503837e+01 -8.528685e+01  5.000000e+01
     vertex  3.368241e+01 -9.254166e+01  1.736482e+01
   endloop
 endfacet
 facet normal  4.764706e-01 -8.252713e-01  3.031551e-01
   outer loop
     vertex  4.330127e+01 -7.500000e+01  5.000000e+01
     vertex  3.368241e+01 -9.254166e+01  1.736482e+01
     vertex  6.330222e+01 -7.544065e+01  1.736482e+01
   endloop
 endfacet
 facet normal  0.000000e+00  0.000000e+00  0.000000e+00
   outer loop
     vertex -3.420201e+01  4.188539e-15  9.396926e+01
     vertex  6.123234e-15 -1.499760e-30  1.000000e+02
     vertex  6.123234e-15 -1.499760e-30  1.000000e+02
   endloop
 endfacet
 facet normal -4.860922e-01  8.571116e-02  8.696942e-01
   outer loop
     vertex -3.420201e+01  4.188539e-15  9.396926e+01
     vertex -3.213938e+01  1.169778e+01  9.396926e+01
     vertex -6.330222e+01  1.116189e+01  7.660444e+01
   endloop
 endfacet
 facet normal -5.124263e-01  0.000000e+00  8.587312e-01
   outer loop
     vertex -3.420201e+01  4.188539e-15  9.396926e+01
     vertex -6.330222e+01  1.116189e+01  7.660444e+01
     vertex -6.330222e+01 -1.116189e+01  7.660444e+01
   endloop
 endfacet
 facet normal -1.735668e-01  3.060452e-02  9.843464e-01
   outer loop
     vertex -3.420201e+01  4.188539e-15  9.396926e+01
     vertex  6.123234e-15 -1.499760e-30  1.000000e+02
     vertex -3.213938e+01  1.169778e+01  9.396926e+01
   endloop
 endfacet
 facet normal -2.684232e-01 -7.374867e-01  6.197276e-01
   outer loop
     vertex -2.198463e+01 -6.040228e+01  7.660444e+01
     vertex -4.330127e+01 -7.500000e+01  5.000000e+01
     vertex -1.503837e+01 -8.528685e+01  5.000000e+01
   endloop
 endfacet
 facet normal -3.761382e-01 -6.514904e-01  6.588477e-01
   outer loop
     vertex -2.198463e+01 -6.040228e+01  7.660444e+01
     vertex -4.131759e+01 -4.924039e+01  7.660444e+01
     vertex -4.330127e+01 -7.500000e+01  5.000000e+01
   endloop
 endfacet
 facet normal  7.299953e-01 -6.125388e-01  3.031551e-01
   outer loop
     vertex  6.634139e+01 -5.566704e+01  5.000000e+01
     vertex  6.330222e+01 -7.544065e+01  1.736482e+01
     vertex  8.528685e+01 -4.924039e+01  1.736482e+01
   endloop
 endfacet
 facet normal  8.492572e-01 -3.010737e-01  4.337243e-01
   outer loop
     vertex  6.634139e+01 -5.566704e+01  5.000000e+01
     vertex  8.528685e+01 -4.924039e+01  1.736482e+01
     vertex  9.350162e+01 -2.290129e-14  3.546049e+01
   endloop
 endfacet
 facet normal  5.959287e-01 -7.102001e-01  3.748130e-01
   outer loop
     vertex  6.634139e+01 -5.566704e+01  5.000000e+01
     vertex  4.330127e+01 -7.500000e+01  5.000000e+01
     vertex  6.330222e+01 -7.544065e+01  1.736482e+01
   endloop
 endfacet
 facet normal -4.815232e-01 -1.752601e-01  8.587312e-01
   outer loop
     vertex -3.213938e+01 -1.169778e+01  9.396926e+01
     vertex -6.330222e+01 -1.116189e+01  7.660444e+01
     vertex -5.566704e+01 -3.213938e+01  7.660444e+01
   endloop
 endfacet
 facet normal -1.735668e-01 -3.060452e-02  9.843464e-01
   outer loop
     vertex -3.213938e+01 -1.169778e+01  9.396926e+01
     vertex  6.123234e-15 -1.499760e-30  1.000000e+02
     vertex -3.420201e+01  4.188539e-15  9.396926e+01
   endloop
 endfacet
 facet normal -4.860922e-01 -8.571116e-02  8.696942e-01
   outer loop
     vertex -3.213938e+01 -1.169778e+01  9.396926e+01
     vertex -3.420201e+01  4.188539e-15  9.396926e+01
     vertex -6.330222e+01 -1.116189e+01  7.660444e+01
   endloop
 endfacet
 facet normal -1.306314e-01 -7.408476e-01  6.588477e-01
   outer loop
     vertex -6.889883e-14 -6.427876e+01  7.660444e+01
     vertex -2.198463e+01 -6.040228e+01  7.660444e+01
     vertex -1.503837e+01 -8.528685e+01  5.000000e+01
   endloop
 endfacet
 facet normal -6.690288e-16 -7.848170e-01  6.197276e-01
   outer loop
     vertex -6.889883e-14 -6.427876e+01  7.660444e+01
     vertex -1.503837e+01 -8.528685e+01  5.000000e+01
     vertex  1.503837e+01 -8.528685e+01  5.000000e+01
   endloop
 endfacet
 facet normal  8.775827e-01 -1.330584e-01  4.605909e-01
   outer loop
     vertex  8.137977e+01 -2.961981e+01  5.000000e+01
     vertex  9.350162e+01 -2.290129e-14  3.546049e+01
     vertex  8.229839e+01 -2.015729e-14  5.680647e+01
   endloop
 endfacet
 facet normal  8.302802e-01 -4.793625e-01 -2.843349e-01
   outer loop
     vertex  8.137977e+01 -2.961981e+01  5.000000e+01
     vertex  6.634139e+01 -5.566704e+01  5.000000e+01
     vertex  9.350162e+01 -2.290129e-14  3.546049e+01
   endloop
 endfacet
 facet normal -3.925413e-01 -3.293813e-01  8.587312e-01
   outer loop
     vertex -2.620026e+01 -2.198463e+01  9.396926e+01
     vertex -5.566704e+01 -3.213938e+01  7.660444e+01
     vertex -4.131759e+01 -4.924039e+01  7.660444e+01
   endloop
 endfacet
 facet normal -4.274623e-01 -2.467955e-01  8.696942e-01
   outer loop
     vertex -2.620026e+01 -2.198463e+01  9.396926e+01
     vertex -3.213938e+01 -1.169778e+01  9.396926e+01
     vertex -5.566704e+01 -3.213938e+01  7.660444e+01
   endloop
 endfacet
 facet normal -1.526321e-01 -8.812219e-02  9.843464e-01
   outer loop
     vertex -2.620026e+01 -2.198463e+01  9.396926e+01
     vertex  6.123234e-15 -1.499760e-30  1.000000e+02
     vertex -3.213938e+01 -1.169778e+01  9.396926e+01
   endloop
 endfacet
 facet normal  1.306314e-01 -7.408476e-01  6.588477e-01
   outer loop
     vertex  2.198463e+01 -6.040228e+01  7.660444e+01
     vertex -6.889883e-14 -6.427876e+01  7.660444e+01
     vertex  1.503837e+01 -8.528685e+01  5.000000e+01
   endloop
 endfacet
 facet normal  2.684232e-01 -7.374867e-01  6.197276e-01
   outer loop
     vertex  2.198463e+01 -6.040228e+01  7.660444e+01
     vertex  1.503837e+01 -8.528685e+01  5.000000e+01
     vertex  4.330127e+01 -7.500000e+01  5.000000e+01
   endloop
 endfacet
 facet normal -1.132877e-01 -1.350110e-01  9.843464e-01
   outer loop
     vertex -1.710101e+01 -2.961981e+01  9.396926e+01
     vertex  6.123234e-15 -1.499760e-30  1.000000e+02
     vertex -2.620026e+01 -2.198463e+01  9.396926e+01
   endloop
 endfacet
 facet normal -2.562131e-01 -4.437742e-01  8.587312e-01
   outer loop
     vertex -1.710101e+01 -2.961981e+01  9.396926e+01
     vertex -4.131759e+01 -4.924039e+01  7.660444e+01
     vertex -2.198463e+01 -6.040228e+01  7.660444e+01
   endloop
 endfacet
 facet normal -3.172741e-01 -3.781126e-01  8.696942e-01
   outer loop
     vertex -1.710101e+01 -2.961981e+01  9.396926e+01
     vertex -2.620026e+01 -2.198463e+01  9.396926e+01
     vertex -4.131759e+01 -4.924039e+01  7.660444e+01
   endloop
 endfacet
 facet normal  3.761382e-01 -6.514904e-01  6.588477e-01
   outer loop
     vertex  4.131759e+01 -4.924039e+01  7.660444e+01
     vertex  2.198463e+01 -6.040228e+01  7.660444e+01
     vertex  4.330127e+01 -7.500000e+01  5.000000e+01
   endloop
 endfacet
 facet normal  5.044706e-01 -6.012047e-01  6.197276e-01
   outer loop
     vertex  4.131759e+01 -4.924039e+01  7.660444e+01
     vertex  4.330127e+01 -7.500000e+01  5.000000e+01
     vertex  6.634139e+01 -5.566704e+01  5.000000e+01
   endloop
 endfacet
 facet normal -6.027913e-02 -1.656155e-01  9.843464e-01
   outer loop
     vertex -5.939117e+00 -3.368241e+01  9.396926e+01
     vertex  6.123234e-15 -1.499760e-30  1.000000e+02
     vertex -1.710101e+01 -2.961981e+01  9.396926e+01
   endloop
 endfacet
 facet normal -1.688180e-01 -4.638237e-01  8.696942e-01
   outer loop
     vertex -5.939117e+00 -3.368241e+01  9.396926e+01
     vertex -1.710101e+01 -2.961981e+01  9.396926e+01
     vertex -2.198463e+01 -6.040228e+01  7.660444e+01
   endloop
 endfacet
 facet normal -8.898189e-02 -5.046414e-01  8.587312e-01
   outer loop
     vertex -5.939117e+00 -3.368241e+01  9.396926e+01
     vertex -2.198463e+01 -6.040228e+01  7.660444e+01
     vertex -6.889883e-14 -6.427876e+01  7.660444e+01
   endloop
 endfacet
 facet normal  5.762771e-01 -4.835539e-01  6.588477e-01
   outer loop
     vertex  5.566704e+01 -3.213938e+01  7.660444e+01
     vertex  4.131759e+01 -4.924039e+01  7.660444e+01
     vertex  6.634139e+01 -5.566704e+01  5.000000e+01
   endloop
 endfacet
 facet normal  6.796715e-01 -3.924085e-01  6.197276e-01
   outer loop
     vertex  5.566704e+01 -3.213938e+01  7.660444e+01
     vertex  6.634139e+01 -5.566704e+01  5.000000e+01
     vertex  8.137977e+01 -2.961981e+01  5.000000e+01
   endloop
 endfacet
 facet normal  7.159947e-01 -1.773628e-01  6.751992e-01
   outer loop
     vertex  5.566704e+01 -3.213938e+01  7.660444e+01
     vertex  8.137977e+01 -2.961981e+01  5.000000e+01
     vertex  8.229839e+01 -2.015729e-14  5.680647e+01
   endloop
 endfacet
 facet normal  8.898189e-02 -5.046414e-01  8.587312e-01
   outer loop
     vertex  5.939117e+00 -3.368241e+01  9.396926e+01
     vertex -6.889883e-14 -6.427876e+01  7.660444e+01
     vertex  2.198463e+01 -6.040228e+01  7.660444e+01
   endloop
 endfacet
 facet normal -2.108548e-16 -1.762444e-01  9.843464e-01
   outer loop
     vertex  5.939117e+00 -3.368241e+01  9.396926e+01
     vertex  6.123234e-15 -1.499760e-30  1.000000e+02
     vertex -5.939117e+00 -3.368241e+01  9.396926e+01
   endloop
 endfacet
 facet normal -5.905211e-16 -4.935909e-01  8.696942e-01
   outer loop
     vertex  5.939117e+00 -3.368241e+01  9.396926e+01
     vertex -5.939117e+00 -3.368241e+01  9.396926e+01
     vertex -6.889883e-14 -6.427876e+01  7.660444e+01
   endloop
 endfacet
 facet normal  7.449648e-01 -9.722240e-02  6.599812e-01
   outer loop
     vertex  6.330222e+01 -1.116189e+01  7.660444e+01
     vertex  8.229839e+01 -2.015729e-14  5.680647e+01
     vertex  6.631227e+01 -1.624182e-14  7.485107e+01
   endloop
 endfacet
 facet normal  5.679024e-01 -2.390533e-02  8.227487e-01
   outer loop
     vertex  6.330222e+01 -1.116189e+01  7.660444e+01
     vertex  6.631227e+01 -1.624182e-14  7.485107e+01
     vertex  4.647232e+01 -1.138243e-14  8.854560e+01
   endloop
 endfacet
 facet normal  7.666404e-01 -2.790343e-01  5.782753e-01
   outer loop
     vertex  6.330222e+01 -1.116189e+01  7.660444e+01
     vertex  5.566704e+01 -3.213938e+01  7.660444e+01
     vertex  8.229839e+01 -2.015729e-14  5.680647e+01
   endloop
 endfacet
 facet normal  4.883195e-01 -1.777337e-01  8.543739e-01
   outer loop
     vertex  6.330222e+01 -1.116189e+01  7.660444e+01
     vertex  4.647232e+01 -1.138243e-14  8.854560e+01
     vertex  5.566704e+01 -3.213938e+01  7.660444e+01
   endloop
 endfacet
 facet normal  2.562131e-01 -4.437742e-01  8.587312e-01
   outer loop
     vertex  1.710101e+01 -2.961981e+01  9.396926e+01
     vertex  2.198463e+01 -6.040228e+01  7.660444e+01
     vertex  4.131759e+01 -4.924039e+01  7.660444e+01
   endloop
 endfacet
 facet normal  6.027913e-02 -1.656155e-01  9.843464e-01
   outer loop
     vertex  1.710101e+01 -2.961981e+01  9.396926e+01
     vertex  6.123234e-15 -1.499760e-30  1.000000e+02
     vertex  5.939117e+00 -3.368241e+01  9.396926e+01
   endloop
 endfacet
 facet normal  1.688180e-01 -4.638237e-01  8.696942e-01
   outer loop
     vertex  1.710101e+01 -2.961981e+01  9.396926e+01
     vertex  5.939117e+00 -3.368241e+01  9.396926e+01
     vertex  2.198463e+01 -6.040228e+01  7.660444e+01
   endloop
 endfacet
 facet normal  3.925413e-01 -3.293813e-01  8.587312e-01
   outer loop
     vertex  2.620026e+01 -2.198463e+01  9.396926e+01
     vertex  4.131759e+01 -4.924039e+01  7.660444e+01
     vertex  5.566704e+01 -3.213938e+01  7.660444e+01
   endloop
 endfacet
 facet normal  1.195512e-01 -1.276140e-01  9.845924e-01
   outer loop
     vertex  2.620026e+01 -2.198463e+01  9.396926e+01
     vertex  2.393157e+01 -5.861543e-15  9.709418e+01
     vertex  6.123234e-15 -1.499760e-30  1.000000e+02
   endloop
 endfacet
 facet normal  3.172741e-01 -3.781126e-01  8.696942e-01
   outer loop
     vertex  2.620026e+01 -2.198463e+01  9.396926e+01
     vertex  1.710101e+01 -2.961981e+01  9.396926e+01
     vertex  4.131759e+01 -4.924039e+01  7.660444e+01
   endloop
 endfacet
 facet normal  4.466518e-01 -1.965220e-01  8.728581e-01
   outer loop
     vertex  2.620026e+01 -2.198463e+01  9.396926e+01
     vertex  5.566704e+01 -3.213938e+01  7.660444e+01
     vertex  4.647232e+01 -1.138243e-14  8.854560e+01
   endloop
 endfacet
 facet normal  1.132877e-01 -1.350110e-01  9.843464e-01
   outer loop
     vertex  2.620026e+01 -2.198463e+01  9.396926e+01
     vertex  6.123234e-15 -1.499760e-30  1.000000e+02
     vertex  1.710101e+01 -2.961981e+01  9.396926e+01
   endloop
 endfacet
 facet normal  3.546047e-01 -9.676762e-04  9.350158e-01
   outer loop
     vertex  3.213938e+01 -1.169778e+01  9.396926e+01
     vertex  4.647232e+01 -1.138243e-14  8.854560e+01
     vertex  2.393157e+01 -5.861543e-15  9.709418e+01
   endloop
 endfacet
 facet normal  5.516396e-01 -3.184893e-01  7.708815e-01
   outer loop
     vertex  3.213938e+01 -1.169778e+01  9.396926e+01
     vertex  2.620026e+01 -2.198463e+01  9.396926e+01
     vertex  4.647232e+01 -1.138243e-14  8.854560e+01
   endloop
 endfacet
 facet normal  2.030421e-01 -1.172264e-01  9.721275e-01
   outer loop
     vertex  3.213938e+01 -1.169778e+01  9.396926e+01
     vertex  2.393157e+01 -5.861543e-15  9.709418e+01
     vertex  2.620026e+01 -2.198463e+01  9.396926e+01
   endloop
 endfacet
endsolid
